<?xml version="1.0" encoding="utf-8"?>
<!-- Generator: Adobe Illustrator 28.0.0, SVG Export Plug-In . SVG Version: 6.00 Build 0)  -->
<svg version="1.1" id="Capa_1" xmlns="http://www.w3.org/2000/svg" xmlns:xlink="http://www.w3.org/1999/xlink" x="0px" y="0px"
	 viewBox="0 0 120 120" style="enable-background:new 0 0 120 120;" xml:space="preserve">
<style type="text/css">
	.st0{fill:url(#SVGID_1_);}
	.st1{fill:#FFFFFF;}
</style>
<g>
	<g>
		<linearGradient id="SVGID_1_" gradientUnits="userSpaceOnUse" x1="60" y1="107.0974" x2="60" y2="2.9675">
			<stop  offset="0" style="stop-color:#951880"/>
			<stop  offset="1" style="stop-color:#C70B52"/>
		</linearGradient>
		<path class="st0" d="M60,2.29C28.13,2.29,2.29,28.13,2.29,60c0,31.87,25.84,57.72,57.71,57.72c31.87,0,57.71-25.84,57.71-57.72
			C117.71,28.13,91.87,2.29,60,2.29z"/>
	</g>
	<g>
		<path class="st1" d="M68.08,93.07c-0.34-0.18-0.68-0.34-1.01-0.54c-0.63-0.38-1.05-0.85-0.71-1.66c0.33-0.8,0.96-1.06,1.73-0.81
			c1.31,0.43,2.59,0.94,3.89,1.42c0.76,0.28,1.57,0.49,2.27,0.88c0.5,0.28,1.1,0.76,1.22,1.26c0.1,0.43-0.31,1.15-0.71,1.48
			c-1.64,1.35-3.35,2.61-5.06,3.88c-0.89,0.66-1.62,0.63-2.15-0.02c-0.5-0.62-0.34-1.44,0.43-2.14c0.15-0.14,0.31-0.28,0.68-0.62
			c-0.52,0-0.8-0.02-1.08,0c-12.42,0.82-23.54-6.09-28.26-17.55c-0.16-0.39-0.33-0.79-0.4-1.2c-0.13-0.7,0.12-1.25,0.82-1.54
			c0.7-0.29,1.27-0.05,1.65,0.55c0.25,0.38,0.39,0.83,0.57,1.25c4.18,10.36,14.59,16.7,25.72,15.67c0.13-0.01,0.25-0.04,0.38-0.07
			C68.06,93.23,68.07,93.15,68.08,93.07z"/>
		<path class="st1" d="M55.16,26.77c0.31,0.1,0.53,0.19,0.77,0.25c0.86,0.22,1.56,0.58,1.36,1.66c-0.17,0.86-0.81,1.2-2.01,1
			c-1.81-0.3-3.62-0.66-5.43-0.99c-0.24-0.04-0.49-0.08-0.73-0.12c-1.38-0.24-1.86-1.45-0.94-2.49c1.48-1.67,3.01-3.29,4.52-4.94
			c0.59-0.64,1.24-0.82,1.97-0.28c0.61,0.45,0.64,1.35,0.11,2.1c-0.16,0.22-0.34,0.42-0.62,0.78c1.7-0.28,3.21-0.55,4.72-0.76
			c10.79-1.49,22.02,3.98,27.5,13.41c0.29,0.5,0.39,1.34,0.17,1.85c-0.43,0.99-1.65,0.82-2.39-0.19c-1.17-1.59-2.2-3.34-3.59-4.72
			c-6.85-6.84-15.03-9.23-24.5-7.03c-0.24,0.06-0.47,0.14-0.7,0.23C55.29,26.54,55.27,26.62,55.16,26.77z"/>
		<path class="st1" d="M80.25,42.1c5.75,0.4,10.09,5.01,9.93,10.72c-0.17,6-4.56,10.49-10.12,10.37c-5.22-0.11-9.9-5.65-9.31-11.02
			c0.43-3.87,1.89-7.14,5.61-8.89C77.56,42.71,78.94,42.48,80.25,42.1z M87.46,52.73c0.02-4.37-3.31-7.93-7.26-7.8
			c-3.35,0.11-6.17,2.98-6.71,6.81c-0.65,4.62,2.84,8.85,7.2,8.72C84.41,60.36,87.45,56.88,87.46,52.73z"/>
		<path class="st1" d="M29.1,39.97c0.05-5.64,3.87-9.91,9.43-10.42c1.89-0.18,3.65,0.34,5.25,1.34c6.37,4,6.37,14.07,0,18.06
			c-5.63,3.52-12.72,0.33-14.32-6.47C29.27,41.66,29.22,40.8,29.1,39.97z M38.99,47.77c0.41-0.06,0.91-0.1,1.38-0.22
			c5.47-1.42,7.41-8.7,3.5-13.07c-2.7-3.01-7.12-3.1-9.83-0.12c-2.34,2.57-2.84,5.59-1.54,8.78C33.64,45.93,35.77,47.58,38.99,47.77
			z"/>
		<path class="st1" d="M40.29,54.88c-7.32,0-12.48,4.13-14.19,10.68c-0.48,1.83-0.53,3.77-0.73,5.66c-0.09,0.86-0.46,1.47-1.34,1.48
			c-0.88,0-1.35-0.61-1.33-1.47c0.11-4.82,1.15-9.34,4.28-13.17c7.58-9.26,21.91-7.18,26.85,3.88c1.28,2.86,1.78,5.88,1.88,8.98
			c0.04,1.12-0.49,1.81-1.34,1.8c-0.81-0.01-1.3-0.62-1.31-1.72c-0.03-3.35-0.66-6.55-2.4-9.45C48.09,57.24,44.24,55.02,40.29,54.88
			z"/>
		<path class="st1" d="M80.88,65.01c7.23,0.06,13.37,4.81,15.43,12.19c0.58,2.09,0.73,4.31,0.97,6.48c0.13,1.19-0.39,1.82-1.25,1.84
			c-0.85,0.02-1.31-0.59-1.34-1.78c-0.09-3.98-0.96-7.72-3.45-10.93c-6.14-7.92-18.2-6.45-22.51,2.72c-1.05,2.24-1.6,4.6-1.71,7.07
			c-0.02,0.46-0.03,0.92-0.06,1.38c-0.07,0.99-0.59,1.59-1.38,1.53c-0.99-0.08-1.33-0.77-1.25-1.64c0.17-1.79,0.27-3.61,0.64-5.36
			c1.45-7.01,6.52-12.03,13.28-13.24C79.11,65.11,80,65.09,80.88,65.01z"/>
	</g>
</g>
</svg>
