<?xml version="1.0" encoding="utf-8"?>
<!-- Generator: Adobe Illustrator 28.0.0, SVG Export Plug-In . SVG Version: 6.00 Build 0)  -->
<svg version="1.1" id="Capa_1" xmlns="http://www.w3.org/2000/svg" xmlns:xlink="http://www.w3.org/1999/xlink" x="0px" y="0px"
	 viewBox="0 0 120 120" style="enable-background:new 0 0 120 120;" xml:space="preserve">
<style type="text/css">
	.st0{fill:#FFFFFF;}
	.st1{fill:url(#SVGID_1_);}
</style>
<g>
	<g>
		<path class="st0" d="M60,1.58C27.73,1.58,1.58,27.73,1.58,60c0,32.27,26.16,58.43,58.42,58.43c32.27,0,58.42-26.16,58.42-58.43
			C118.42,27.73,92.27,1.58,60,1.58z"/>
	</g>
	<linearGradient id="SVGID_1_" gradientUnits="userSpaceOnUse" x1="17.7285" y1="60" x2="102.3258" y2="60">
		<stop  offset="0" style="stop-color:#951880"/>
		<stop  offset="1" style="stop-color:#C70B52"/>
	</linearGradient>
	<path class="st1" d="M90.35,55.15c3.26-3.4,6-6.25,8.75-9.09c0.37-0.38,0.7-0.91,1.16-1.07c0.62-0.23,1.34-0.17,2.02-0.24
		c-0.04,0.73,0.21,1.74-0.18,2.16c-2.15,2.36-4.44,4.6-6.72,6.84c-0.87,0.85-1.83,1.61-3.01,2.65c2.01,2.03,3.77,3.76,5.48,5.54
		c3.51,3.64,3.26,9.1-0.72,11.73c-1.45,0.96-3.34,1.26-5.37,1.99c-0.26,5.02-3.02,8.15-8.78,8.32c-0.21,5.55-3.02,8.53-8.73,8.73
		c-0.1,3.63-1.3,6.64-4.87,8.04c-3.56,1.4-6.52,0.13-9.04-2.42c-6.1,5.97-14.03,2.37-14.17-5.52c-5.4-0.29-8.54-3.03-8.67-8.62
		c-7.04-0.99-8.13-3.76-8.87-8.81c-0.69-0.11-1.42-0.23-2.15-0.35c-2.9-0.47-4.86-2.15-5.84-4.85c-1.02-2.8-0.5-5.46,1.54-7.64
		c1.81-1.93,3.8-3.69,5.93-5.72c-1.09-1.12-2.33-2.41-3.58-3.67c-1.93-1.94-3.88-3.87-5.82-5.81c-0.72-0.72-1.51-1.54-0.51-2.52
		c0.99-0.97,1.81-0.16,2.53,0.55c3.34,3.33,6.66,6.69,10.03,10c0.64,0.62,1.37,1.3,2.19,1.56c3.74,1.21,5.53,3.8,5.77,7.63
		c0.01,0.21,0.12,0.42,0.17,0.61c6.26,1.12,7.78,2.64,8.64,8.21c2.26,1.05,4.67,1.57,6.17,3.03c1.5,1.46,2.08,3.85,3.32,6.35
		c2.55,0.13,5.53,1.14,7.05,4.42c1.52,3.27,0.71,6.22-1.52,8.84c1.83,2.62,4.65,3.21,6.87,1.52c2.33-1.77,2.55-4.95,0.42-7.2
		c-2.09-2.21-4.27-4.34-6.41-6.51c-0.27-0.27-0.55-0.53-0.81-0.8c-0.75-0.76-1.78-1.62-0.74-2.68c1.01-1.04,1.89-0.14,2.68,0.65
		c2.25,2.27,4.5,4.54,6.81,6.75c0.7,0.67,1.5,1.34,2.38,1.69c1.97,0.79,4.25-0.01,5.47-1.73c1.2-1.7,1.09-4.29-0.45-5.91
		c-2.25-2.37-4.65-4.61-6.92-6.97c-0.83-0.86-2.49-1.81-1.2-3.16c1.32-1.37,2.27,0.28,3.13,1.11c2.19,2.11,4.29,4.32,6.47,6.44
		c2.28,2.22,5.16,2.37,7.1,0.43c1.97-1.97,1.86-4.82-0.35-7.11c-2.12-2.19-4.3-4.32-6.45-6.47c-0.32-0.32-0.81-0.59-0.93-0.98
		c-0.22-0.7-0.21-1.47-0.3-2.22c0.75,0.07,1.74-0.13,2.2,0.27c1.72,1.49,3.27,3.18,4.89,4.79c1.08,1.07,2.11,2.21,3.27,3.19
		c2.03,1.71,4.83,1.51,6.58-0.37c1.62-1.74,1.69-4.65-0.08-6.43C87.31,55.4,78.4,46.55,69.5,37.68c-0.15-0.15-0.37-0.24-0.77-0.48
		c-3.08,3.09-6.22,6.16-9.25,9.34c-0.44,0.46-0.49,1.4-0.51,2.12c-0.06,2.51,0.01,5.03-0.05,7.54c-0.1,4.39-3.19,7.49-7.51,7.56
		c-3.9,0.06-7.34-3.01-7.52-7.11c-0.19-4.33-0.07-8.68,0.02-13.02c0.05-2.21,0.92-4.13,2.57-5.67c2.38-2.23,4.72-4.49,7.46-7.1
		c-2.88-2.72-5.42-5.12-7.95-7.52c-0.5-0.47-0.99-0.95-1.46-1.45c-0.71-0.76-1.83-1.56-0.77-2.67c1.19-1.24,2.04-0.02,2.83,0.75
		c2.17,2.13,4.31,4.3,6.47,6.45c1.86,1.85,3.02,1.92,4.83,0.11c3.02-3.04,6.5-4.01,10.65-2.84c0.63,0.18,1.62-0.14,2.15-0.58
		c1.29-1.06,2.41-2.32,3.59-3.51c0.68-0.69,1.43-1.31,2.35-0.48c0.94,0.84,0.41,1.67-0.27,2.36c-1.7,1.74-3.37,3.53-5.21,5.12
		c-0.51,0.44-1.74,0.57-2.38,0.27c-3.45-1.62-6.32-0.9-8.92,1.73c-3.75,3.79-7.61,7.46-11.27,11.33c-0.92,0.97-1.68,2.48-1.76,3.78
		c-0.26,4.17-0.27,8.37-0.15,12.55c0.08,2.84,2.31,4.74,4.93,4.63c2.64-0.11,4.49-2.11,4.54-5.02c0.05-2.74-0.12-5.49,0.06-8.22
		c0.07-1.1,0.55-2.39,1.29-3.18c3.01-3.22,6.2-6.29,9.33-9.4c1.93-1.92,2.24-1.91,4.23,0.08c5.87,5.87,11.74,11.73,17.59,17.62
		C89.19,53.32,89.55,54.02,90.35,55.15z M49.19,93.8c-0.01,1.9,0.91,3.32,2.57,4.2c1.59,0.84,3.32,0.87,4.71-0.31
		c1.67-1.41,3.26-2.96,4.66-4.64c1.29-1.54,1.24-3.39,0.17-5.1c-1-1.6-2.5-2.41-4.41-2.26c-2.41,0.18-7.23,4.75-7.62,7.16
		C49.22,93.15,49.21,93.46,49.19,93.8z M40.46,84.68c0.01,2.31,0.92,3.68,2.46,4.54c1.57,0.87,3.33,0.95,4.72-0.2
		c1.75-1.43,3.39-3.04,4.82-4.78c1.4-1.71,1.03-4.22-0.5-5.83c-1.42-1.49-4.02-2.12-5.6-0.87c-1.99,1.58-3.69,3.54-5.39,5.45
		C40.53,83.49,40.54,84.39,40.46,84.68z M30.26,59.53c-0.47,0.24-1.53,0.55-2.3,1.2c-1.33,1.11-2.56,2.37-3.71,3.67
		c-1.74,1.97-1.63,4.82,0.14,6.58c1.78,1.77,4.57,1.84,6.57,0.08c1.24-1.1,2.41-2.3,3.54-3.52c1.43-1.53,1.76-3.33,0.89-5.25
		C34.52,60.35,32.86,59.58,30.26,59.53z M31.76,75.51c-0.11,2.41,0.64,3.91,2.29,4.88c1.73,1.02,3.6,1.03,5.13-0.21
		c1.64-1.32,3.15-2.86,4.46-4.51c1.49-1.88,1.19-4.39-0.41-6.03c-1.62-1.67-4.34-1.98-6.22-0.46c-1.58,1.28-2.99,2.79-4.33,4.33
		C32.12,74.15,31.93,75.12,31.76,75.51z"/>
</g>
</svg>
