<?xml version="1.0" encoding="utf-8"?>
<!-- Generator: Adobe Illustrator 28.0.0, SVG Export Plug-In . SVG Version: 6.00 Build 0)  -->
<svg version="1.1" id="Capa_1" xmlns="http://www.w3.org/2000/svg" xmlns:xlink="http://www.w3.org/1999/xlink" x="0px" y="0px"
	 viewBox="0 0 120 120" style="enable-background:new 0 0 120 120;" xml:space="preserve">
<style type="text/css">
	.st0{fill:url(#SVGID_1_);}
	.st1{fill:#FFFFFF;}
</style>
<g>
	<linearGradient id="SVGID_1_" gradientUnits="userSpaceOnUse" x1="1.5762" y1="60" x2="118.4238" y2="60">
		<stop  offset="0" style="stop-color:#951880"/>
		<stop  offset="1" style="stop-color:#C70B52"/>
	</linearGradient>
	<path class="st0" d="M60,1.58C27.73,1.58,1.58,27.73,1.58,60c0,32.27,26.16,58.43,58.43,58.43c32.26,0,58.42-26.16,58.42-58.43
		C118.42,27.73,92.27,1.58,60,1.58z"/>
</g>
<path class="st1" d="M96.1,60.03c0,10.83-0.02,21.65,0.02,32.48c0,1.51-0.67,2.52-1.86,3.26c-0.34,0.21-0.78,0.3-1.18,0.38
	c-0.27,0.06-0.56,0.02-0.84,0.02c-21.48,0-42.96-0.01-64.45,0.02c-1.5,0-2.64-0.53-3.4-1.78c-0.28-0.45-0.44-1.05-0.45-1.58
	c-0.05-2.56-0.03-5.13-0.03-7.7c0-19.17,0.01-38.34-0.01-57.51c0-1.59,0.64-2.72,1.99-3.44c0.45-0.24,1.02-0.35,1.53-0.35
	c3.83-0.03,7.67-0.02,11.5-0.02c17.79,0,35.58,0.01,53.37-0.02c1.6,0,2.74,0.6,3.42,1.98c0.27,0.55,0.38,1.24,0.38,1.86
	C96.11,38.44,96.1,49.24,96.1,60.03z M26.54,36.14c0,0.72-0.01,1.34,0,1.95c0.03,2.9,0.09,5.8,0.09,8.7c0,2.84-0.08,5.68-0.09,8.53
	c-0.01,1.18,0.08,2.36,0.08,3.55c-0.01,2.93-0.07,5.85-0.07,8.78c0,2.93,0.08,5.85,0.08,8.78c0,2.9-0.07,5.8-0.09,8.7
	c-0.01,1.13,0.06,2.25,0.08,3.38c0.02,1.21-0.04,2.42,0.02,3.63c0.06,1.24,0.28,1.42,1.57,1.42c2.25,0.01,4.5,0.01,6.75,0
	c1.04-0.01,2.08-0.09,3.12-0.09c3.04,0.01,6.08,0.08,9.12,0.08c2.79,0,5.57-0.09,8.36-0.09c2.93,0,5.85,0.08,8.78,0.09
	c1.1,0.01,2.2-0.09,3.29-0.09c3.04,0.01,6.08,0.08,9.12,0.08c2.81,0,5.63-0.08,8.44-0.09c2.33,0,4.67,0.06,7,0.08
	c0.79,0.01,1.25-0.4,1.26-1.16c0.02-2.03,0.02-4.05,0.01-6.08c-0.02-2.79-0.09-5.57-0.09-8.36c0-2.93,0.08-5.85,0.1-8.78
	c0.01-1.13-0.09-2.25-0.09-3.38c0.01-3.04,0.08-6.08,0.08-9.12c0-2.79-0.09-5.57-0.09-8.36c0-2.9,0.07-5.8,0.1-8.69
	c0-0.2,0.01-0.4,0-0.59c-0.06-0.94-0.13-1.88-0.2-2.87C71,36.14,48.86,36.14,26.54,36.14z M93.46,33.29c0-1.88,0.01-3.65,0-5.41
	c-0.01-1-0.22-1.29-1.23-1.31c-3.09-0.05-6.19-0.04-9.29-0.05c-0.87,0-1.75,0.03-2.62,0.03c-2.9-0.02-5.8-0.07-8.7-0.07
	c-2.96,0-5.91,0.07-8.87,0.07c-2.87,0-5.74-0.07-8.61-0.08c-1.1-0.01-2.2,0.08-3.29,0.07c-2.93-0.01-5.85-0.07-8.78-0.06
	c-2.93,0-5.85,0.06-8.78,0.08c-1.86,0.01-3.71,0.01-5.57,0.01c-0.68,0-1.05,0.3-1.07,1.01c-0.03,1.49-0.09,2.98-0.1,4.48
	c0,0.4,0.11,0.81,0.18,1.24C49,33.29,71.14,33.29,93.46,33.29z M40.83,75.46c2.34,0,4.68,0,7.02,0c2.1,0,3.85,1.65,3.89,3.75
	c0.04,2.42,0.03,4.85-0.02,7.27c-0.04,2.09-1.52,3.64-3.58,3.76c-1.32,0.08-2.64,0.02-3.96,0.03c-1.1,0.02-2.19,0.08-3.29,0.08
	c-2.31,0.01-4.61,0.02-6.92,0c-2.29-0.02-4.01-1.52-4.13-3.83c-0.13-2.47-0.21-4.96-0.05-7.43c0.13-1.96,1.63-3.61,3.87-3.62
	c2.4-0.01,4.79,0,7.19,0C40.83,75.47,40.83,75.46,40.83,75.46z M38.6,87.35c0.2,0.07,0.28,0.13,0.36,0.13
	c2.96,0.01,5.91,0.02,8.87,0c0.78-0.01,1.15-0.47,1.14-1.26c-0.01-2.25,0.02-4.51,0-6.76c0-0.87-0.42-1.24-1.35-1.25
	c-2.76-0.01-5.52,0-8.28,0.01c-0.24,0-0.48,0.07-0.75,0.11C38.6,81.38,38.6,84.35,38.6,87.35z M35.7,78.24
	c-0.75,0-1.37-0.05-1.98,0.01c-0.85,0.09-1.24,0.64-1.22,1.52c0.02,1.18-0.01,2.36,0,3.54c0.01,1.04-0.01,2.09,0.11,3.12
	c0.04,0.36,0.41,0.92,0.71,0.98c0.75,0.14,1.54,0.05,2.38,0.05C35.7,84.35,35.7,81.36,35.7,78.24z M40.8,54.18
	c-2.25,0-4.51,0.01-6.76,0c-2.43-0.01-4.04-1.28-4.2-3.69c-0.18-2.55-0.24-5.14-0.04-7.68c0.16-2,1.72-3.49,4.36-3.5
	c4.56-0.02,9.13-0.05,13.69,0.02c0.79,0.01,1.66,0.37,2.32,0.83c0.96,0.67,1.59,1.63,1.58,2.92c-0.02,2.37,0.04,4.74-0.01,7.1
	c-0.05,2.42-1.65,3.96-4.09,4C45.36,54.2,43.08,54.18,40.8,54.18C40.8,54.18,40.8,54.18,40.8,54.18z M38.62,51.35
	c0.3,0.03,0.52,0.08,0.74,0.08c2.71,0,5.41,0.01,8.12,0c1.12-0.01,1.5-0.4,1.51-1.56c0.01-2.11,0.01-4.23,0-6.34
	c-0.01-1.06-0.43-1.48-1.5-1.48c-2.68-0.01-5.36,0-8.03,0c-0.27,0-0.54,0.06-0.83,0.1C38.62,45.26,38.62,48.29,38.62,51.35z
	 M35.69,42.04c-0.62,0-1.09-0.01-1.56,0c-1.18,0.04-1.64,0.51-1.64,1.67c0,0.79,0.08,1.57,0.07,2.36c-0.01,1.26-0.06,2.53-0.07,3.79
	c0,0.65,0.17,1.34,0.87,1.47c0.74,0.14,1.53,0.03,2.33,0.03C35.69,48.23,35.69,45.22,35.69,42.04z M40.62,72.27
	c-2.23,0-4.45,0-6.68,0c-2.22-0.01-3.97-1.44-4.11-3.64c-0.16-2.53-0.16-5.07-0.07-7.6c0.07-1.97,1.83-3.61,3.81-3.63
	c4.84-0.05,9.69-0.05,14.53-0.02c1.82,0.01,3.58,1.76,3.62,3.59c0.05,2.51,0.05,5.01-0.01,7.52c-0.05,2.09-1.7,3.7-3.82,3.75
	c-2.42,0.05-4.84,0.01-7.27,0.01C40.62,72.26,40.62,72.26,40.62,72.27z M38.62,69.45c0.39,0.03,0.63,0.06,0.88,0.06
	c2.59,0,5.18,0.01,7.77,0c1.32-0.01,1.7-0.38,1.71-1.73c0.02-2.03,0.01-4.06,0-6.08c0-1.18-0.39-1.57-1.57-1.57
	c-2.62,0-5.24,0-7.86,0c-0.3,0-0.6,0.04-0.94,0.07C38.62,63.31,38.62,66.33,38.62,69.45z M35.68,69.5c0-3.19,0-6.23,0-9.37
	c-0.65,0-1.21-0.03-1.76,0.01c-0.99,0.06-1.44,0.6-1.44,1.6c0.01,1.38-0.01,2.75,0,4.13c0.01,0.87,0.03,1.74,0.1,2.61
	c0.05,0.61,0.44,0.98,1.05,1.02C34.28,69.53,34.93,69.5,35.68,69.5z M64.2,45.36c-0.76,0-1.52-0.01-2.28,0
	c-1.91,0.03-3.83,0.05-5.74,0.12c-0.64,0.02-1.02,0.43-1.1,1.08c-0.08,0.63,0.17,1.12,0.76,1.36c0.38,0.15,0.8,0.3,1.21,0.3
	c4.67,0.02,9.35,0.02,14.02-0.01c0.55,0,1.17-0.1,1.61-0.38c0.35-0.22,0.67-0.82,0.63-1.22c-0.04-0.4-0.49-0.82-0.86-1.09
	c-0.26-0.19-0.7-0.16-1.07-0.16C68.98,45.36,66.59,45.36,64.2,45.36C64.2,45.36,64.2,45.36,64.2,45.36z M69.69,66.41
	c0.84-0.1,1.68-0.18,2.51-0.31c0.7-0.1,1.12-0.55,1.16-1.25c0.04-0.73-0.39-1.19-1.06-1.32c-0.57-0.11-1.16-0.06-1.74-0.07
	c-1.66-0.03-3.32-0.07-4.98-0.09c-1.18-0.01-2.36-0.02-3.54,0c-1.94,0.03-3.88,0.06-5.82,0.15c-0.62,0.03-1.03,0.44-1.12,1.08
	c-0.09,0.66,0.16,1.19,0.8,1.41c0.47,0.16,0.98,0.3,1.47,0.3c1.38,0,2.76-0.09,4.14-0.1c2.73-0.02,5.45-0.01,8.18-0.01
	C69.68,66.27,69.69,66.34,69.69,66.41z M64.14,84.28c2.48,0,4.96,0.02,7.44-0.01c1.13-0.02,1.83-0.66,1.78-1.5
	c-0.05-0.87-0.88-1.38-2.03-1.29c-0.53,0.04-1.07,0.06-1.6,0.05c-1.38-0.02-2.76-0.07-4.14-0.07c-1.01,0-2.03,0.05-3.04,0.06
	c-2.05,0.02-4.11,0.01-6.16,0.03c-0.71,0.01-1.17,0.4-1.3,1.1c-0.13,0.69,0.31,1.33,1.03,1.52c0.35,0.09,0.72,0.12,1.08,0.12
	c2.31,0.01,4.62,0.01,6.93,0.01C64.14,84.3,64.14,84.29,64.14,84.28z M79.09,45.87c-0.62-0.54-1.54-0.52-2-0.03
	c-0.52,0.55-0.48,1.43,0.12,2.05c0.63,0.65,1.27,1.28,1.92,1.9c1.03,0.97,1.68,0.96,2.68-0.03c1.28-1.27,2.54-2.56,3.81-3.84
	c0.59-0.6,1.21-1.18,1.78-1.81c0.51-0.55,0.5-1.34,0.04-1.84c-0.52-0.57-1.14-0.64-1.81-0.17c-0.3,0.21-0.56,0.46-0.82,0.72
	c-1.42,1.44-2.84,2.88-4.38,4.45C79.9,46.72,79.53,46.25,79.09,45.87z M79.17,63.97c-0.63-0.59-1.54-0.62-2.06-0.1
	c-0.57,0.57-0.51,1.45,0.14,2.11c0.6,0.6,1.2,1.19,1.8,1.79c1.02,1.03,1.7,1.08,2.72,0.07c1.88-1.86,3.74-3.75,5.59-5.64
	c0.52-0.53,0.53-1.31,0.09-1.84c-0.48-0.55-1.18-0.65-1.82-0.2c-0.27,0.19-0.52,0.43-0.75,0.67c-1.44,1.46-2.88,2.93-4.39,4.47
	C79.96,64.77,79.58,64.36,79.17,63.97z M79.08,81.99c-0.62-0.61-1.44-0.58-1.97-0.05c-0.56,0.58-0.53,1.4,0.08,2.04
	c0.66,0.69,1.34,1.37,2.01,2.05c0.77,0.79,1.48,0.87,2.28,0.09c1.98-1.92,3.92-3.89,5.85-5.86c0.58-0.6,0.57-1.37,0.06-1.9
	c-0.52-0.54-1.34-0.56-1.97,0.02c-0.83,0.76-1.62,1.57-2.41,2.36c-0.83,0.83-1.65,1.66-2.79,2.8C79.78,82.94,79.5,82.4,79.08,81.99z
	 M44.56,31.27c1.12-0.25,1.53-1.3,0.87-2.18c-0.54-0.72-2.77-0.77-3.3-0.04c-0.14,0.19-0.23,0.46-0.24,0.69
	c-0.07,1.01,0.62,1.57,2.08,1.57C44.06,31.31,44.32,31.32,44.56,31.27z M38.07,28.57c-0.34-0.01-0.73-0.1-1,0.03
	c-0.43,0.22-1.01,0.53-1.11,0.92c-0.11,0.4,0.12,1.08,0.45,1.38c1.03,0.93,2.83,0.41,3.38-0.92C39.39,28.81,39.13,28.59,38.07,28.57
	z M31.75,31.31c0.14,0,0.28,0.01,0.42,0c0.95-0.06,1.48-0.57,1.47-1.39c-0.01-0.88-0.48-1.31-1.48-1.34
	c-0.39-0.01-0.79-0.01-1.18,0.01c-0.67,0.03-1.09,0.47-1.11,1.06c-0.01,0.43,0.23,0.98,0.54,1.27c0.31,0.29,0.86,0.34,1.3,0.49
	C31.73,31.38,31.74,31.34,31.75,31.31z M90.19,29.64c-0.1-0.73-0.67-1.06-1.84-1.06c-1.4,0-1.86,0.25-1.98,1.07
	c-0.16,1.09,0.51,1.69,1.86,1.68C89.49,31.33,90.32,30.6,90.19,29.64z M43.77,84.33c0.7-0.04,1.41-0.02,2.1-0.15
	c0.69-0.13,1.03-0.64,0.98-1.37c-0.05-0.73-0.45-1.14-1.15-1.24c-0.59-0.08-1.18-0.15-1.77-0.15c-0.73,0-1.47,0-2.18,0.14
	c-0.75,0.15-1.14,0.72-1.08,1.5c0.06,0.74,0.57,1.09,1.25,1.15c0.61,0.06,1.24,0.01,1.86,0.01C43.77,84.27,43.77,84.3,43.77,84.33z
	 M41.7,45.5c-0.68,0.11-1.01,0.57-1.01,1.25c0,0.66,0.27,1.22,0.98,1.27c1.31,0.11,2.63,0.12,3.95,0.15c0.16,0,0.32-0.11,0.47-0.17
	c0.65-0.27,0.82-0.81,0.76-1.45c-0.06-0.61-0.42-0.98-1.02-1.06c-0.67-0.09-1.34-0.12-2.09-0.19C43.09,45.36,42.39,45.39,41.7,45.5z
	 M41.49,63.62c-0.65,0.21-0.85,0.76-0.8,1.41c0.05,0.63,0.41,1,1.01,1.05c1.23,0.1,2.46,0.15,3.69,0.19
	c0.18,0.01,0.37-0.12,0.56-0.17c0.73-0.2,0.95-0.72,0.9-1.41c-0.05-0.7-0.47-1.07-1.12-1.16c-0.8-0.11-1.62-0.17-2.55-0.27
	C42.68,63.37,42.07,63.44,41.49,63.62z"/>
</svg>
