<?xml version="1.0" encoding="utf-8"?>
<!-- Generator: Adobe Illustrator 28.0.0, SVG Export Plug-In . SVG Version: 6.00 Build 0)  -->
<svg version="1.1" id="Capa_1" xmlns="http://www.w3.org/2000/svg" xmlns:xlink="http://www.w3.org/1999/xlink" x="0px" y="0px"
	 viewBox="0 0 120 120" style="enable-background:new 0 0 120 120;" xml:space="preserve">
<style type="text/css">
	.st0{fill:url(#SVGID_1_);}
	.st1{fill:#FFFFFF;}
</style>
<g>
	<g>
		<linearGradient id="SVGID_1_" gradientUnits="userSpaceOnUse" x1="60" y1="106.3854" x2="60" y2="2.2555">
			<stop  offset="0" style="stop-color:#951880"/>
			<stop  offset="1" style="stop-color:#C70B52"/>
		</linearGradient>
		<path class="st0" d="M60,1.58C27.73,1.58,1.57,27.73,1.57,60c0,32.27,26.15,58.43,58.42,58.43c32.27,0,58.43-26.16,58.43-58.43
			C118.43,27.73,92.27,1.58,60,1.58z"/>
	</g>
	<g>
		<path class="st1" d="M80.14,60.03C80.07,71.24,71,80.2,59.79,80.12c-10.99-0.07-19.98-9.19-19.93-20.2
			c0.05-11.1,9.16-20.12,20.23-20.05C71.19,39.95,80.2,49.02,80.14,60.03z M59.9,78.12c9.92,0.08,18.14-8.01,18.23-17.94
			c0.09-10.02-7.99-18.22-18.04-18.3c-9.92-0.08-18.15,8.02-18.24,17.94C41.78,69.84,49.86,78.04,59.9,78.12z"/>
		<path class="st1" d="M27.22,88.02c-0.02-3.48,3.5-5.82,6.69-4.4c0.6,0.27,0.9,0.17,1.33-0.27c2.32-2.36,4.67-4.69,7.01-7.03
			c0.2-0.2,0.45-0.52,0.67-0.52c0.4,0,0.91,0.1,1.16,0.36c0.39,0.41,0.21,0.93-0.19,1.34c-1.46,1.46-2.92,2.92-4.38,4.39
			c-0.99,0.99-1.96,2.01-2.99,2.97c-0.4,0.38-0.42,0.66-0.18,1.15c0.85,1.76,0.46,3.89-0.89,5.31c-1.32,1.38-3.41,1.84-5.2,1.14
			C28.43,91.74,27.23,90,27.22,88.02z M31.96,85.21c-1.51,0.01-2.76,1.29-2.74,2.81c0.02,1.53,1.29,2.79,2.79,2.77
			c1.57-0.02,2.82-1.31,2.78-2.86C34.76,86.41,33.49,85.19,31.96,85.21z"/>
		<path class="st1" d="M34.71,36.01c-1.93,1.05-3.73,1.07-5.45-0.09c-2.05-1.39-2.65-4.21-1.39-6.35c1.27-2.17,4.02-2.97,6.3-1.84
			c2.21,1.09,3.25,3.8,2.23,6.09c-0.31,0.71-0.16,1.05,0.34,1.53c2.31,2.26,4.58,4.56,6.87,6.84c0.04,0.04,0.07,0.07,0.11,0.11
			c0.64,0.65,0.73,1.27,0.27,1.72c-0.47,0.44-1.02,0.36-1.66-0.27c-1.63-1.62-3.27-3.25-4.89-4.89
			C36.52,37.93,35.62,36.96,34.71,36.01z M32.07,29.21c-1.53-0.03-2.8,1.18-2.84,2.71c-0.04,1.57,1.19,2.86,2.75,2.88
			c1.51,0.02,2.79-1.23,2.82-2.75C34.83,30.54,33.58,29.24,32.07,29.21z"/>
		<path class="st1" d="M92.78,32.02c-0.02,3.47-3.57,5.78-6.74,4.33c-0.52-0.24-0.81-0.19-1.21,0.22c-2.4,2.44-4.83,4.84-7.24,7.26
			c-0.41,0.41-0.91,0.71-1.39,0.29c-0.27-0.24-0.37-0.75-0.41-1.16c-0.02-0.19,0.26-0.44,0.44-0.62c2.37-2.38,4.75-4.76,7.15-7.12
			c0.43-0.42,0.5-0.72,0.24-1.28c-0.83-1.81-0.42-3.93,0.94-5.3c1.39-1.4,3.46-1.81,5.28-1.06C91.64,28.33,92.79,30.07,92.78,32.02z
			 M90.77,32.01c0.01-1.53-1.22-2.78-2.75-2.81c-1.5-0.02-2.8,1.24-2.82,2.74c-0.02,1.56,1.24,2.85,2.8,2.85
			C89.53,34.8,90.77,33.55,90.77,32.01z"/>
		<path class="st1" d="M83.15,87.76c0.15-0.53,0.29-1.23,0.56-1.88c0.18-0.42,0.13-0.64-0.19-0.95c-2.26-2.23-4.5-4.48-6.75-6.73
			c-0.3-0.3-0.61-0.59-0.87-0.93c-0.34-0.44-0.31-0.98,0.12-1.27c0.31-0.2,0.86-0.23,1.2-0.09c0.39,0.15,0.68,0.57,0.99,0.89
			c2.19,2.19,4.39,4.37,6.56,6.58c0.42,0.43,0.73,0.48,1.28,0.23c2.52-1.14,5.42,0.1,6.4,2.67c0.99,2.6-0.42,5.45-3.1,6.28
			c-2.56,0.8-5.32-0.74-6.01-3.38C83.26,88.8,83.23,88.37,83.15,87.76z M87.93,85.2c-1.51,0.02-2.77,1.32-2.73,2.83
			c0.04,1.54,1.31,2.79,2.81,2.76c1.57-0.03,2.81-1.31,2.77-2.88C90.74,86.39,89.48,85.19,87.93,85.2z"/>
		<path class="st1" d="M32.01,61.01c-0.26,0-0.52,0-0.78,0c-4.37,0-8.74,0-13.12,0c-0.26,0-0.53,0.02-0.79-0.02
			c-0.57-0.07-0.93-0.39-0.93-0.99c0-0.59,0.35-0.92,0.93-1c0.21-0.03,0.42-0.01,0.64-0.01c4.4,0,8.8,0,13.2,0c0.29,0,0.58,0,1.02,0
			c-0.2-0.26-0.31-0.42-0.44-0.56c-0.89-0.91-1.8-1.8-2.69-2.71c-0.55-0.56-0.6-1.2-0.12-1.6c0.55-0.46,1.07-0.29,1.54,0.18
			c1.59,1.59,3.19,3.18,4.77,4.78c0.67,0.68,0.66,1.14-0.03,1.83c-1.55,1.56-3.1,3.11-4.66,4.66c-0.62,0.62-1.21,0.69-1.66,0.24
			c-0.45-0.45-0.36-1.05,0.25-1.66c0.99-0.98,2-1.95,3-2.93C32.09,61.16,32.05,61.09,32.01,61.01z"/>
		<path class="st1" d="M87.86,61.22c0.92,0.9,1.85,1.79,2.76,2.69c0.84,0.83,0.98,1.38,0.52,1.89c-0.5,0.54-1.05,0.41-1.93-0.47
			c-1.45-1.44-2.89-2.88-4.33-4.33c-0.79-0.8-0.8-1.22-0.02-2c1.53-1.54,3.07-3.08,4.61-4.61c0.62-0.61,1.23-0.68,1.65-0.24
			c0.43,0.46,0.35,1.06-0.25,1.67c-0.99,0.99-1.98,1.98-3.12,3.12c0.46,0.02,0.73,0.04,1,0.04c4.4,0,8.8,0,13.2,0
			c0.27,0,0.53-0.02,0.79,0.02c0.55,0.07,0.86,0.4,0.87,0.96c0.02,0.56-0.3,0.89-0.82,1.01c-0.25,0.06-0.53,0.03-0.79,0.03
			c-4.37,0-8.75,0-13.12,0c-0.3,0-0.61,0-0.91,0C87.93,61.08,87.89,61.15,87.86,61.22z"/>
		<path class="st1" d="M58.97,32.21c0.02-0.44,0.04-0.72,0.04-1c0-4.43,0-8.85,0-13.28c0-0.24-0.01-0.48,0.02-0.71
			c0.08-0.56,0.47-0.92,0.97-0.82c0.35,0.07,0.69,0.47,0.92,0.8c0.13,0.18,0.04,0.51,0.04,0.78c0,4.43,0,8.85,0.01,13.28
			c0,0.26,0.02,0.51,0.04,0.9c0.25-0.2,0.41-0.31,0.55-0.44c0.94-0.93,1.87-1.87,2.82-2.8c0.45-0.43,0.96-0.46,1.42-0.03
			c0.46,0.44,0.44,0.97,0.01,1.41c-1.69,1.72-3.4,3.42-5.11,5.11c-0.48,0.47-1.01,0.42-1.48-0.05c-1.67-1.66-3.34-3.33-5-5
			c-0.46-0.46-0.55-0.99-0.06-1.47c0.48-0.47,1.01-0.39,1.48,0.07c0.89,0.88,1.77,1.76,2.65,2.63
			C58.48,31.77,58.67,31.94,58.97,32.21z"/>
		<path class="st1" d="M58.8,87.83c-0.92,0.94-1.84,1.88-2.76,2.82c-0.19,0.19-0.36,0.39-0.58,0.54c-0.45,0.32-0.92,0.29-1.3-0.09
			c-0.38-0.39-0.41-0.86-0.08-1.3c0.22-0.29,0.5-0.55,0.76-0.81c1.39-1.39,2.77-2.77,4.17-4.15c0.75-0.74,1.2-0.77,1.89-0.09
			c1.6,1.59,3.18,3.19,4.77,4.78c0.41,0.41,0.62,0.87,0.28,1.42c-0.37,0.6-1.09,0.61-1.7,0.01c-1.03-1.02-2.04-2.07-3.06-3.1
			c-0.07,0.02-0.15,0.04-0.22,0.05c0,0.26,0,0.53,0,0.79c0,4.43,0,8.85,0,13.28c0,0.26,0.01,0.53-0.02,0.79
			c-0.07,0.57-0.48,0.92-0.97,0.82c-0.35-0.07-0.68-0.47-0.92-0.8c-0.13-0.18-0.05-0.51-0.05-0.78c0-4.4,0-8.8,0-13.2
			c0-0.29,0-0.57,0-0.86C58.95,87.92,58.87,87.88,58.8,87.83z"/>
		<path class="st1" d="M59.99,75.25c-8.12-0.04-14.74-6.34-15.2-14.45c-0.45-7.89,5.39-14.89,13.31-15.93
			c0.37-0.05,0.74-0.07,1.11-0.08c0.65-0.02,1.11,0.25,1.13,0.94c0.02,0.63-0.37,0.91-0.98,1.03c-1.32,0.25-2.69,0.4-3.94,0.86
			c-5.64,2.08-9.2,7.76-8.6,13.55c0.64,6.17,5.15,10.97,11.21,11.95c7.51,1.22,14.69-4.47,15.22-12.05
			c0.01-0.16,0.01-0.32,0.04-0.48c0.11-0.57,0.45-0.93,1.03-0.91c0.61,0.03,1.04,0.43,0.94,1.05c-0.23,1.49-0.38,3.02-0.87,4.42
			C72.24,71.27,66.45,75.28,59.99,75.25z"/>
		<path class="st1" d="M58.21,64.03c1.89-2.09,3.71-4.09,5.52-6.09c2.14-2.36,4.26-4.73,6.43-7.06c0.27-0.29,0.81-0.44,1.23-0.45
			c0.21-0.01,0.63,0.45,0.62,0.68c-0.02,0.4-0.21,0.87-0.48,1.18c-3.77,4.2-7.57,8.38-11.36,12.57c-0.37,0.41-0.74,0.84-1.13,1.23
			c-0.61,0.62-1.15,0.63-1.7,0c-2.28-2.59-4.54-5.18-6.81-7.78c-0.43-0.5-0.45-1.04,0.05-1.48c0.51-0.45,1.05-0.29,1.47,0.18
			c1.55,1.75,3.08,3.51,4.61,5.26C57.16,62.84,57.65,63.4,58.21,64.03z"/>
	</g>
</g>
</svg>
