<?xml version="1.0" encoding="utf-8"?>
<!-- Generator: Adobe Illustrator 28.0.0, SVG Export Plug-In . SVG Version: 6.00 Build 0)  -->
<svg version="1.1" id="Capa_1" xmlns="http://www.w3.org/2000/svg" xmlns:xlink="http://www.w3.org/1999/xlink" x="0px" y="0px"
	 viewBox="0 0 120 120" style="enable-background:new 0 0 120 120;" xml:space="preserve">
<style type="text/css">
	.st0{fill:url(#SVGID_1_);}
	.st1{fill:#FFFFFF;}
</style>
<g>
	<g>
		<linearGradient id="SVGID_1_" gradientUnits="userSpaceOnUse" x1="60" y1="-16.9435" x2="60" y2="123.7733">
			<stop  offset="0" style="stop-color:#00C0FF"/>
			<stop  offset="1" style="stop-color:#007AFF"/>
		</linearGradient>
		<path class="st0" d="M60,1.58C27.73,1.58,1.58,27.73,1.58,60c0,32.27,26.16,58.43,58.42,58.43c32.27,0,58.42-26.16,58.42-58.43
			C118.42,27.73,92.27,1.58,60,1.58z"/>
	</g>
	<g>
		<path class="st1" d="M59.99,95.46c-11,0-22,0.01-32.99-0.01c-3.63-0.01-6.44-1.57-8.35-4.66c-0.8-1.29-1.26-2.72-1.28-4.24
			c-0.04-3.81-0.03-7.62-0.02-11.43c0-0.88,0.55-1.51,1.38-1.52c0.57-0.01,0.61-0.27,0.61-0.72c-0.01-5.53-0.02-11.07-0.01-16.6
			c0-7.97,0-15.95,0.01-23.92c0.01-3.77,2.1-6.77,5.61-7.9c0.98-0.31,2.06-0.4,3.1-0.41c6.39-0.04,12.78-0.02,19.17,0
			c0.54,0,0.73-0.18,0.83-0.69c1.09-5.17,4.22-8.46,9.33-9.7c6.31-1.53,12.79,2.51,14.37,8.82c0.09,0.34,0.17,0.69,0.22,1.04
			c0.05,0.39,0.22,0.53,0.63,0.52c3.58-0.01,7.15,0,10.73,0c3.01,0,6.02-0.02,9.02,0c4.03,0.03,7.11,2.44,8.09,6.35
			c0.16,0.63,0.2,1.31,0.2,1.96c0.01,8.4,0.01,16.8,0.01,25.2c0,5.14,0,10.29-0.01,15.43c0,0.41,0.09,0.6,0.56,0.61
			c0.86,0.02,1.43,0.61,1.44,1.47c0.01,3.88,0.07,7.76-0.03,11.64c-0.1,3.9-3.28,7.61-7.08,8.43c-0.93,0.2-1.9,0.31-2.85,0.31
			c-6.87,0.02-13.74,0.01-20.61,0.01C68.04,95.46,64.01,95.46,59.99,95.46z M74.57,73.59c7.47,0,14.95-0.01,22.42,0.01
			c0.6,0,0.65-0.26,0.65-0.74c-0.01-6.66-0.02-13.31-0.02-19.97c0-6.78,0-13.56,0.01-20.34c0-0.96-0.13-1.88-0.59-2.73
			c-1.05-1.93-2.74-2.76-4.88-2.77c-6.46-0.01-12.92,0-19.38-0.02c-0.57,0-0.77,0.2-0.86,0.73c-0.87,5.03-5.08,9.1-10.06,9.79
			c-4.34,0.6-8-0.72-10.96-3.94c-1.57-1.7-2.51-3.74-2.91-6.01c-0.08-0.45-0.26-0.6-0.7-0.56c-0.57,0.04-1.14,0.02-1.71,0.02
			c-5.91,0-11.82-0.01-17.72-0.01c-3.42,0-5.54,2.17-5.53,5.59c0.02,4.75,0,9.5,0,14.25c0,6.17,0,12.35,0,18.52
			c0,2.53,0.01,5.05-0.01,7.58c0,0.43,0.13,0.6,0.58,0.59c1.48-0.02,2.95-0.02,4.43,0c0.43,0,0.61-0.14,0.59-0.58
			c-0.02-0.89-0.02-1.78,0-2.67c0.03-1.88-0.09-3.76,0.41-5.62c1.63-6.05,7.9-9.82,14-8.38c5.38,1.27,9.08,5.9,9.13,11.42
			c0.02,1.65,0.01,3.31,0.01,4.96c0,0.87,0,0.87,0.87,0.87C59.76,73.59,67.16,73.59,74.57,73.59z M20.4,76.64
			c-0.02,0.15-0.04,0.25-0.04,0.36c0,3.11-0.01,6.23,0,9.34c0.01,1.09,0.35,2.11,0.93,3.02c1.29,2.04,3.2,3.03,5.59,3.07
			c2.1,0.03,4.2,0.01,6.3,0.01c6.78,0,13.56,0,20.34,0c6.87,0,13.74,0,20.61,0c6.34,0,12.67,0.01,19.01-0.01
			c0.55,0,1.11-0.07,1.63-0.22c3.09-0.9,4.84-3.25,4.84-6.47c0-2.51,0-5.02,0-7.53c0-0.51,0-1.02,0-1.58
			C73.18,76.64,46.8,76.64,20.4,76.64z M39.76,73.58C39.76,73.58,39.76,73.58,39.76,73.58c2.72,0,5.45-0.01,8.17,0.01
			c0.43,0,0.55-0.14,0.55-0.55c-0.02-1.76-0.02-3.52-0.02-5.29c0-1.16-0.22-2.26-0.67-3.32c-1.72-4.06-5.95-6.14-10.3-5.07
			c-3.54,0.87-6.29,4.1-6.46,7.73c-0.1,1.95-0.04,3.91-0.08,5.87c-0.01,0.5,0.17,0.62,0.65,0.62
			C34.31,73.57,37.03,73.58,39.76,73.58z M69.11,25.53c0.05-4.92-3.96-9.19-9.22-9.14c-5.08,0.04-9.13,4.25-9.05,9.28
			c0.08,5.09,4.24,9.11,9.35,9.01C65.16,34.58,69.21,30.43,69.11,25.53z"/>
		<path class="st1" d="M39.69,52.31c-4.42-0.02-7.92-3.56-7.91-8.01c0.01-4.27,3.64-7.85,7.94-7.85c4.31,0,7.9,3.59,7.89,7.88
			C47.61,48.81,44.12,52.33,39.69,52.31z M39.8,49.3c2.75-0.06,4.88-2.32,4.81-5.08c-0.07-2.68-2.33-4.8-5.04-4.74
			c-2.65,0.06-4.83,2.33-4.77,4.97C34.85,47.18,37.11,49.37,39.8,49.3z"/>
		<path class="st1" d="M77.61,50.69c-4.63,0-9.25,0-13.88,0c-1.24,0-1.94-0.89-1.61-1.98c0.2-0.66,0.78-1.03,1.63-1.03
			c3.45-0.01,6.9-0.01,10.36-0.01c5.66,0,11.32,0,16.98,0c0.35,0,0.72,0.01,1.05,0.1c0.68,0.2,1.13,0.9,1.05,1.55
			c-0.09,0.75-0.67,1.33-1.42,1.35c-1.07,0.03-2.13,0.02-3.2,0.02C84.9,50.7,81.26,50.7,77.61,50.69
			C77.61,50.69,77.61,50.69,77.61,50.69z"/>
		<path class="st1" d="M77.57,58.5c-4.63,0-9.25,0-13.88,0c-1.19,0-1.89-0.89-1.57-1.96c0.18-0.62,0.76-1.04,1.51-1.05
			c1.14-0.02,2.28-0.01,3.42,0c8.08,0,16.16,0.01,24.24,0.01c0.16,0,0.32,0,0.48,0.01c0.81,0.08,1.45,0.76,1.43,1.52
			c-0.02,0.81-0.68,1.48-1.53,1.48c-2.69,0.01-5.37,0.01-8.06,0.01C81.59,58.5,79.58,58.5,77.57,58.5
			C77.57,58.5,77.57,58.5,77.57,58.5z"/>
		<path class="st1" d="M77.61,63.77c4.59,0,9.18,0,13.77,0c0.73,0,1.35,0.19,1.66,0.91c0.4,0.91-0.14,1.93-1.14,2.04
			c-0.83,0.1-1.67,0.07-2.5,0.07c-4.54,0.01-9.07,0-13.61,0c-4,0-8.01,0.01-12.01,0c-1.28,0-2.02-0.91-1.67-1.99
			c0.21-0.65,0.76-1.03,1.57-1.03c1.51-0.01,3.02,0,4.54,0C71.35,63.76,74.48,63.76,77.61,63.77
			C77.61,63.76,77.61,63.77,77.61,63.77z"/>
		<path class="st1" d="M60.06,83.01c9.64,0,19.29,0.02,28.93-0.02c1.3-0.01,2.1,1.2,1.57,2.21c-0.33,0.62-0.88,0.84-1.55,0.84
			c-3.49,0-6.97,0.01-10.46,0.01c-7.35,0-14.7,0-22.05,0c-8.49,0-16.97,0-25.46,0c-0.67,0-1.23-0.19-1.59-0.79
			c-0.29-0.5-0.28-1.02,0.02-1.52C29.79,83.19,30.3,83,30.91,83c2.58,0.01,5.16,0.01,7.74,0.01c5.66,0,11.32,0,16.97,0
			C57.1,83.01,58.58,83.01,60.06,83.01C60.06,83.01,60.06,83.01,60.06,83.01z"/>
		<path class="st1" d="M66.2,25.54c-3.65,2.11-7.17,4.14-10.78,6.22c0-4.2,0-8.24,0-12.45C59.01,21.39,62.52,23.42,66.2,25.54z"/>
	</g>
</g>
</svg>
