<?xml version="1.0" encoding="utf-8"?>
<!-- Generator: Adobe Illustrator 28.0.0, SVG Export Plug-In . SVG Version: 6.00 Build 0)  -->
<svg version="1.1" id="Capa_1" xmlns="http://www.w3.org/2000/svg" xmlns:xlink="http://www.w3.org/1999/xlink" x="0px" y="0px"
	 viewBox="0 0 120 120" style="enable-background:new 0 0 120 120;" xml:space="preserve">
<style type="text/css">
	.st0{fill:url(#SVGID_1_);}
	.st1{fill:#FFFFFF;}
</style>
<g>
	<g>
		<linearGradient id="SVGID_1_" gradientUnits="userSpaceOnUse" x1="60" y1="-16.9435" x2="60" y2="123.7733">
			<stop  offset="0" style="stop-color:#00C0FF"/>
			<stop  offset="1" style="stop-color:#007AFF"/>
		</linearGradient>
		<path class="st0" d="M60,1.58C27.73,1.58,1.57,27.73,1.57,60c0,32.27,26.15,58.43,58.42,58.43c32.27,0,58.43-26.16,58.43-58.43
			C118.43,27.73,92.27,1.58,60,1.58z"/>
	</g>
	<g>
		<path class="st1" d="M21.92,58.2c0-7.37,0-14.74,0-22.11c0-3.63,0.01-7.25,0-10.88c0-1.8,0.73-3.17,2.36-3.95
			c0.56-0.27,1.24-0.42,1.87-0.43c7.67-0.03,15.34-0.02,23.01-0.02c7.52,0,15.04,0.01,22.56,0.01c4.71,0,9.42-0.01,14.13,0
			c2.47,0.01,4.29,1.82,4.29,4.29c0.01,7.39,0,14.77,0,22.16c0,7.8,0.01,15.61,0,23.41c0,0.3,0.09,0.47,0.36,0.63
			c3.97,2.32,6.48,5.73,7.32,10.26c0.84,4.5-0.24,8.59-3.12,12.16c-2.12,2.63-4.87,4.3-8.15,5.07c-1.96,0.46-3.94,0.51-5.94,0.15
			c-2.41-0.43-4.56-1.4-6.51-2.85c-0.11-0.08-0.27-0.15-0.4-0.15c-5.42,0-10.85,0.02-16.27,0.02c-10.42,0-20.83,0-31.25-0.01
			c-1.98,0-3.67-1.25-4.11-3.14c-0.19-0.81-0.15-1.69-0.15-2.53c-0.01-5.29,0.01-10.58,0.01-15.87
			C21.92,69.02,21.92,63.61,21.92,58.2z M71.31,93.43C67.46,87.52,67,81.56,71,75.81c4.01-5.77,9.79-7.38,16.56-5.84
			c0.01-0.17,0.03-0.31,0.03-0.46c0-2.16,0.01-4.33,0.01-6.49c0-6.42-0.01-12.85-0.01-19.27c0-6.19,0.01-12.38,0-18.57
			c0-1.17-0.69-1.85-1.87-1.85c-5.77,0-11.55,0-17.32,0c-9.7,0-19.4,0.01-29.1,0.01c-4.26,0-8.52,0.01-12.78-0.02
			c-1.13-0.01-2.13,0.5-2.08,2.05c0.06,2.03,0.01,4.06,0.01,6.09c0,16.91,0,33.81,0,50.72c0,3.15,0.02,6.29,0,9.44
			c-0.01,1.02,0.57,1.55,1.16,1.72c0.3,0.08,0.62,0.09,0.94,0.09c2.98,0,5.96-0.01,8.94-0.01c5.21,0,10.42,0.01,15.62,0.01
			c6.07,0,12.15,0,18.22,0C69.96,93.43,70.59,93.43,71.31,93.43z M83.18,96.83c6.64,0.13,12.56-5.35,12.58-12.45
			c0.02-7.22-5.71-12.63-12.59-12.65c-7.02-0.02-12.55,5.8-12.56,12.6C70.6,91.18,76.46,96.99,83.18,96.83z"/>
		<path class="st1" d="M36.38,41.06c-3.48-3.35-2.61-7.98-0.05-10.24c2.69-2.37,6.79-2.27,9.32,0.29c2.45,2.49,2.91,6.79-0.34,9.91
			c0.61,0.37,1.24,0.7,1.81,1.11c2.96,2.18,4.52,5.11,4.61,8.8c0.02,0.7-0.43,1.23-1.05,1.32c-0.64,0.09-1.2-0.21-1.39-0.79
			c-0.08-0.23-0.08-0.49-0.09-0.74c-0.15-2.75-1.36-4.93-3.58-6.54c-3.01-2.18-7.37-1.97-10.17,0.47c-1.89,1.65-2.9,3.72-2.96,6.24
			c-0.02,0.84-0.51,1.37-1.26,1.37c-0.78,0-1.29-0.53-1.26-1.41c0.14-4.27,2.16-7.4,5.85-9.49C35.99,41.27,36.16,41.18,36.38,41.06z
			 M40.78,40.09c2.37,0.19,4.34-2.02,4.3-4.15c-0.04-2.41-1.82-4.26-4.21-4.27c-2.4-0.01-4.23,1.82-4.28,4.2
			C36.55,38.42,38.9,40.29,40.78,40.09z"/>
		<path class="st1" d="M56.03,60.24c-6.52,0-13.04,0-19.56,0c-1.68,0-3.36,0-5.04,0.01c-0.88,0-1.44-0.45-1.46-1.21
			c-0.02-0.78,0.53-1.31,1.43-1.31c4.06-0.01,8.12-0.01,12.18-0.01c5.29,0,10.58,0,15.87,0c5.21,0,10.41,0,15.62,0
			c1.86,0,3.73-0.01,5.59,0c0.69,0,1.18,0.29,1.35,0.81c0.31,0.89-0.26,1.7-1.22,1.71c-1.88,0.02-3.76,0.01-5.64,0.01
			C68.77,60.25,62.4,60.25,56.03,60.24C56.03,60.24,56.03,60.24,56.03,60.24z"/>
		<path class="st1" d="M50.24,69.38c-3.99,0-7.99,0-11.98,0c-2.31,0-4.62,0.01-6.94-0.01c-0.87-0.01-1.39-0.53-1.37-1.31
			c0.02-0.71,0.6-1.21,1.43-1.21c8.98,0,17.97,0,26.95,0c3.53,0,7.05-0.01,10.58,0.01c0.36,0,0.76,0.11,1.07,0.3
			c0.45,0.27,0.61,0.87,0.46,1.32c-0.17,0.53-0.59,0.87-1.14,0.89c-0.85,0.03-1.7,0.03-2.55,0.03c-4.38,0-8.75,0-13.13,0
			c-1.13,0-2.26,0-3.39,0C50.24,69.39,50.24,69.38,50.24,69.38z"/>
		<path class="st1" d="M47.87,78.52c-5.31,0-10.61,0-15.92,0c-0.23,0-0.47,0-0.7-0.01c-0.75-0.02-1.27-0.49-1.3-1.17
			c-0.03-0.69,0.47-1.26,1.21-1.33c0.25-0.03,0.5-0.02,0.75-0.02C41.77,76,51.64,76,61.5,76c0.9,0,1.8-0.01,2.69-0.01
			c0.21,0,0.44,0,0.64,0.05c0.65,0.15,1.09,0.76,1.01,1.36c-0.08,0.65-0.58,1.11-1.26,1.11c-2.81,0.01-5.62,0.01-8.43,0.01
			C53.39,78.52,50.63,78.52,47.87,78.52z"/>
		<path class="st1" d="M46.38,87.67c-5.02,0-10.04,0-15.07,0c-0.77,0-1.34-0.51-1.35-1.23c-0.01-0.76,0.56-1.31,1.39-1.31
			c3.43,0,6.85,0,10.28,0c5.75,0,11.51,0,17.26,0c0.85,0,1.7,0,2.54,0c0.87,0.01,1.47,0.54,1.45,1.3c-0.01,0.75-0.59,1.24-1.45,1.24
			c-3.73,0-7.45-0.01-11.18-0.02c-1.3,0-2.59,0-3.89,0C46.38,87.66,46.38,87.67,46.38,87.67z"/>
		<path class="st1" d="M69.93,41.97c-3.59,0-7.19,0-10.78,0c-0.82,0-1.39-0.51-1.41-1.24c-0.02-0.74,0.58-1.3,1.41-1.3
			c3.66,0,7.32,0.01,10.98,0.01c3.18,0,6.35-0.01,9.53-0.02c0.38,0,0.77,0.01,1.15,0.03c0.75,0.04,1.29,0.58,1.29,1.26
			c-0.01,0.74-0.53,1.25-1.33,1.25C77.15,41.97,73.54,41.97,69.93,41.97C69.93,41.97,69.93,41.97,69.93,41.97z"/>
		<path class="st1" d="M69.9,51.1c-3.58,0-7.15,0-10.73,0c-0.56,0-1.02-0.18-1.29-0.68c-0.47-0.85,0.14-1.82,1.18-1.84
			c1.8-0.03,3.59-0.02,5.39-0.02c5.32,0,10.64,0,15.96,0c0.29,0,0.61,0.01,0.88,0.11c0.54,0.19,0.88,0.79,0.8,1.3
			c-0.1,0.65-0.56,1.09-1.21,1.11c-0.81,0.02-1.63,0.01-2.44,0.01C75.59,51.11,72.74,51.11,69.9,51.1C69.9,51.1,69.9,51.1,69.9,51.1
			z"/>
		<path class="st1" d="M69.88,32.82c-3.59,0-7.18,0-10.77,0c-0.79,0-1.36-0.51-1.38-1.21c-0.02-0.72,0.55-1.3,1.35-1.31
			c2.96-0.01,5.92-0.01,8.88-0.01c4.12,0,8.25,0,12.37,0c0.2,0,0.4-0.01,0.6,0.01c0.69,0.07,1.2,0.64,1.17,1.32
			c-0.03,0.64-0.56,1.18-1.24,1.19c-1.93,0.02-3.86,0.01-5.79,0.01C73.34,32.83,71.61,32.82,69.88,32.82z"/>
		<path class="st1" d="M77.12,83.6c0.3,0.19,0.63,0.33,0.88,0.57c0.81,0.77,1.6,1.55,2.37,2.36c0.31,0.32,0.52,0.29,0.82-0.01
			c2.34-2.36,4.7-4.71,7.05-7.06c0.13-0.13,0.26-0.27,0.41-0.37c0.54-0.36,1.17-0.27,1.56,0.22c0.36,0.45,0.32,1.13-0.13,1.59
			c-2.06,2.07-4.14,4.14-6.21,6.21c-0.72,0.72-1.43,1.44-2.15,2.15c-0.62,0.61-1.26,0.63-1.87,0.01c-1.21-1.19-2.4-2.39-3.6-3.6
			c-0.37-0.37-0.51-0.8-0.27-1.32C76.2,83.88,76.57,83.69,77.12,83.6z"/>
	</g>
</g>
</svg>
