<?xml version="1.0" encoding="utf-8"?>
<!-- Generator: Adobe Illustrator 28.0.0, SVG Export Plug-In . SVG Version: 6.00 Build 0)  -->
<svg version="1.1" id="Capa_1" xmlns="http://www.w3.org/2000/svg" xmlns:xlink="http://www.w3.org/1999/xlink" x="0px" y="0px"
	 viewBox="0 0 120 120" style="enable-background:new 0 0 120 120;" xml:space="preserve">
<style type="text/css">
	.st0{fill:url(#SVGID_1_);}
	.st1{fill:#FFFFFF;}
	.st2{fill:#68A6B6;}
</style>
<g>
	<g>
		<linearGradient id="SVGID_1_" gradientUnits="userSpaceOnUse" x1="60" y1="-16.9435" x2="60" y2="123.7733">
			<stop  offset="0" style="stop-color:#95D5F4"/>
			<stop  offset="1" style="stop-color:#00A19A"/>
		</linearGradient>
		<path class="st0" d="M60,1.58C27.74,1.58,1.58,27.73,1.58,60c0,32.27,26.16,58.43,58.43,58.43S118.42,92.26,118.42,60
			C118.42,27.73,92.27,1.58,60,1.58z"/>
	</g>
	<g>
		<g>
			<g>
				<g>
					<path class="st1" d="M83.19,65.13H36.81c-1.68,0-3.18,1.06-3.75,2.65l-3.98,11.26c-0.42,1.21-0.24,2.57,0.5,3.62
						c0.75,1.05,1.96,1.68,3.25,1.68h54.33c1.3,0,2.5-0.62,3.25-1.68c0.75-1.05,0.93-2.41,0.5-3.62l-3.97-11.26
						C86.38,66.19,84.88,65.13,83.19,65.13L83.19,65.13z"/>
				</g>
				<rect x="56.51" y="81.62" class="st2" width="6.98" height="1.16"/>
			</g>
			<path class="st1" d="M83.19,64.8H36.81V39.62h46.38 M83.19,35.65H36.81c-2.2,0-3.98,1.78-3.98,3.98v29.16c0,0,1.78,0,3.98,0
				h46.38c2.19,0,3.97,0,3.97,0V39.62C87.16,37.43,85.38,35.65,83.19,35.65L83.19,35.65z"/>
		</g>
	</g>
</g>
</svg>
