<?xml version="1.0" encoding="utf-8"?>
<!-- Generator: Adobe Illustrator 28.0.0, SVG Export Plug-In . SVG Version: 6.00 Build 0)  -->
<svg version="1.1" id="Capa_1" xmlns="http://www.w3.org/2000/svg" xmlns:xlink="http://www.w3.org/1999/xlink" x="0px" y="0px"
	 viewBox="0 0 120 120" style="enable-background:new 0 0 120 120;" xml:space="preserve">
<style type="text/css">
	.st0{fill:url(#SVGID_1_);}
	.st1{fill:#FFFFFF;}
</style>
<g>
	<g>
		<linearGradient id="SVGID_1_" gradientUnits="userSpaceOnUse" x1="60" y1="-16.9435" x2="60" y2="123.7733">
			<stop  offset="0" style="stop-color:#95D5F4"/>
			<stop  offset="1" style="stop-color:#00A19A"/>
		</linearGradient>
		<path class="st0" d="M60,1.58C27.73,1.58,1.58,27.73,1.58,60c0,32.27,26.16,58.43,58.43,58.43c32.26,0,58.42-26.16,58.42-58.43
			C118.42,27.73,92.27,1.58,60,1.58z"/>
	</g>
	<g>
		<path class="st1" d="M96.1,60.03c0,10.83-0.02,21.65,0.02,32.48c0,1.51-0.67,2.52-1.86,3.26c-0.34,0.21-0.78,0.3-1.18,0.38
			c-0.27,0.06-0.56,0.02-0.84,0.02c-21.48,0-42.96-0.01-64.45,0.02c-1.5,0-2.64-0.53-3.4-1.78c-0.28-0.45-0.44-1.05-0.45-1.58
			c-0.05-2.56-0.03-5.13-0.03-7.7c0-19.17,0.01-38.34-0.01-57.51c0-1.59,0.64-2.72,1.99-3.44c0.45-0.24,1.02-0.35,1.53-0.35
			c3.83-0.03,7.67-0.02,11.5-0.02c17.79,0,35.58,0.01,53.37-0.02c1.6,0,2.74,0.6,3.42,1.98c0.27,0.55,0.38,1.24,0.38,1.86
			C96.11,38.44,96.1,49.24,96.1,60.03z M26.54,36.14c0,0.72-0.01,1.34,0,1.95c0.03,2.9,0.09,5.8,0.09,8.7
			c0,2.84-0.08,5.68-0.09,8.53c-0.01,1.18,0.08,2.36,0.08,3.55c-0.01,2.93-0.07,5.85-0.07,8.78c0,2.93,0.08,5.85,0.08,8.78
			c0,2.9-0.07,5.8-0.09,8.7c-0.01,1.13,0.06,2.25,0.08,3.38c0.02,1.21-0.04,2.42,0.02,3.63c0.06,1.24,0.28,1.42,1.57,1.42
			c2.25,0.01,4.5,0.01,6.75,0c1.04-0.01,2.08-0.09,3.12-0.09c3.04,0.01,6.08,0.08,9.12,0.08c2.79,0,5.57-0.09,8.36-0.09
			c2.93,0,5.85,0.08,8.78,0.09c1.1,0.01,2.2-0.09,3.29-0.09c3.04,0.01,6.08,0.08,9.12,0.08c2.81,0,5.63-0.08,8.44-0.09
			c2.33,0,4.67,0.06,7,0.08c0.79,0.01,1.25-0.4,1.26-1.16c0.02-2.03,0.02-4.05,0.01-6.08c-0.02-2.79-0.09-5.57-0.09-8.36
			c0-2.93,0.08-5.85,0.1-8.78c0.01-1.13-0.09-2.25-0.09-3.38c0.01-3.04,0.08-6.08,0.08-9.12c0-2.79-0.09-5.57-0.09-8.36
			c0-2.9,0.07-5.8,0.1-8.69c0-0.2,0.01-0.4,0-0.59c-0.06-0.94-0.13-1.88-0.2-2.87C71,36.14,48.86,36.14,26.54,36.14z M93.46,33.29
			c0-1.88,0.01-3.65,0-5.41c-0.01-1-0.22-1.29-1.23-1.31c-3.09-0.05-6.19-0.04-9.29-0.05c-0.87,0-1.75,0.03-2.62,0.03
			c-2.9-0.02-5.8-0.07-8.7-0.07c-2.96,0-5.91,0.07-8.87,0.07c-2.87,0-5.74-0.07-8.61-0.08c-1.1-0.01-2.2,0.08-3.29,0.07
			c-2.93-0.01-5.85-0.07-8.78-0.06c-2.93,0-5.85,0.06-8.78,0.08c-1.86,0.01-3.71,0.01-5.57,0.01c-0.68,0-1.05,0.3-1.07,1.01
			c-0.03,1.49-0.09,2.98-0.1,4.48c0,0.4,0.11,0.81,0.18,1.24C49,33.29,71.14,33.29,93.46,33.29z"/>
		<path class="st1" d="M40.83,75.46c2.34,0,4.68,0,7.02,0c2.1,0,3.85,1.65,3.89,3.75c0.04,2.42,0.03,4.85-0.02,7.27
			c-0.04,2.09-1.52,3.64-3.58,3.76c-1.32,0.08-2.64,0.02-3.96,0.03c-1.1,0.02-2.19,0.08-3.29,0.08c-2.31,0.01-4.61,0.02-6.92,0
			c-2.29-0.02-4.01-1.52-4.13-3.83c-0.13-2.47-0.21-4.96-0.05-7.43c0.13-1.96,1.63-3.61,3.87-3.62c2.4-0.01,4.79,0,7.19,0
			C40.83,75.47,40.83,75.46,40.83,75.46z M38.6,87.35c0.2,0.07,0.28,0.13,0.36,0.13c2.96,0.01,5.91,0.02,8.87,0
			c0.78-0.01,1.15-0.47,1.14-1.26c-0.01-2.25,0.02-4.51,0-6.76c0-0.87-0.42-1.24-1.35-1.25c-2.76-0.01-5.52,0-8.28,0.01
			c-0.24,0-0.48,0.07-0.75,0.11C38.6,81.38,38.6,84.35,38.6,87.35z M35.7,78.24c-0.75,0-1.37-0.05-1.98,0.01
			c-0.85,0.09-1.24,0.64-1.22,1.52c0.02,1.18-0.01,2.36,0,3.54c0.01,1.04-0.01,2.09,0.11,3.12c0.04,0.36,0.41,0.92,0.71,0.98
			c0.75,0.14,1.54,0.05,2.38,0.05C35.7,84.35,35.7,81.36,35.7,78.24z"/>
		<path class="st1" d="M40.8,54.18c-2.25,0-4.51,0.01-6.76,0c-2.43-0.01-4.04-1.28-4.2-3.69c-0.18-2.55-0.24-5.14-0.04-7.68
			c0.16-2,1.72-3.49,4.36-3.5c4.56-0.02,9.13-0.05,13.69,0.02c0.79,0.01,1.66,0.37,2.32,0.83c0.96,0.67,1.59,1.63,1.58,2.92
			c-0.02,2.37,0.04,4.74-0.01,7.1c-0.05,2.42-1.65,3.96-4.09,4C45.36,54.2,43.08,54.18,40.8,54.18C40.8,54.18,40.8,54.18,40.8,54.18
			z M38.62,51.35c0.3,0.03,0.52,0.08,0.74,0.08c2.71,0,5.41,0.01,8.12,0c1.12-0.01,1.5-0.4,1.51-1.56c0.01-2.11,0.01-4.23,0-6.34
			c-0.01-1.06-0.43-1.48-1.5-1.48c-2.68-0.01-5.36,0-8.03,0c-0.27,0-0.54,0.06-0.83,0.1C38.62,45.26,38.62,48.29,38.62,51.35z
			 M35.69,42.04c-0.62,0-1.09-0.01-1.56,0c-1.18,0.04-1.64,0.51-1.64,1.67c0,0.79,0.08,1.57,0.07,2.36
			c-0.01,1.26-0.06,2.53-0.07,3.79c0,0.65,0.17,1.34,0.87,1.47c0.74,0.14,1.53,0.03,2.33,0.03C35.69,48.23,35.69,45.22,35.69,42.04z
			"/>
		<path class="st1" d="M40.62,72.27c-2.23,0-4.45,0-6.68,0c-2.22-0.01-3.97-1.44-4.11-3.64c-0.16-2.53-0.16-5.07-0.07-7.6
			c0.07-1.97,1.83-3.61,3.81-3.63c4.84-0.05,9.69-0.05,14.53-0.02c1.82,0.01,3.58,1.76,3.62,3.59c0.05,2.51,0.05,5.01-0.01,7.52
			c-0.05,2.09-1.7,3.7-3.82,3.75c-2.42,0.05-4.84,0.01-7.27,0.01C40.62,72.26,40.62,72.26,40.62,72.27z M38.62,69.45
			c0.39,0.03,0.63,0.06,0.88,0.06c2.59,0,5.18,0.01,7.77,0c1.32-0.01,1.7-0.38,1.71-1.73c0.02-2.03,0.01-4.06,0-6.08
			c0-1.18-0.39-1.57-1.57-1.57c-2.62,0-5.24,0-7.86,0c-0.3,0-0.6,0.04-0.94,0.07C38.62,63.31,38.62,66.33,38.62,69.45z M35.68,69.5
			c0-3.19,0-6.23,0-9.37c-0.65,0-1.21-0.03-1.76,0.01c-0.99,0.06-1.44,0.6-1.44,1.6c0.01,1.38-0.01,2.75,0,4.13
			c0.01,0.87,0.03,1.74,0.1,2.61c0.05,0.61,0.44,0.98,1.05,1.02C34.28,69.53,34.93,69.5,35.68,69.5z"/>
		<path class="st1" d="M64.2,45.36c2.39,0,4.79-0.01,7.18,0.01c0.36,0,0.8-0.02,1.07,0.16c0.38,0.26,0.82,0.69,0.86,1.09
			c0.04,0.39-0.28,0.99-0.63,1.22c-0.44,0.28-1.06,0.38-1.61,0.38c-4.67,0.03-9.35,0.03-14.02,0.01c-0.4,0-0.83-0.15-1.21-0.3
			c-0.59-0.24-0.84-0.73-0.76-1.36c0.08-0.65,0.46-1.06,1.1-1.08c1.91-0.07,3.82-0.09,5.74-0.12C62.68,45.35,63.44,45.36,64.2,45.36
			C64.2,45.36,64.2,45.36,64.2,45.36z"/>
		<path class="st1" d="M69.68,66.2c-2.73,0-5.45-0.01-8.18,0.01c-1.38,0.01-2.76,0.11-4.14,0.1c-0.49,0-1-0.13-1.47-0.3
			c-0.64-0.22-0.89-0.75-0.8-1.41c0.09-0.64,0.5-1.05,1.12-1.08c1.94-0.09,3.88-0.12,5.82-0.15c1.18-0.02,2.36-0.01,3.54,0
			c1.66,0.02,3.32,0.06,4.98,0.09c0.58,0.01,1.18-0.03,1.74,0.07c0.67,0.13,1.11,0.59,1.06,1.32c-0.04,0.7-0.46,1.15-1.16,1.25
			c-0.83,0.12-1.67,0.21-2.51,0.31C69.69,66.34,69.68,66.27,69.68,66.2z"/>
		<path class="st1" d="M64.14,84.31c-2.31,0-4.62,0.01-6.93-0.01c-0.36,0-0.74-0.03-1.08-0.12c-0.72-0.19-1.16-0.83-1.03-1.52
			c0.13-0.7,0.59-1.09,1.3-1.1c2.05-0.02,4.11-0.02,6.16-0.03c1.01-0.01,2.03-0.06,3.04-0.06c1.38,0.01,2.76,0.06,4.14,0.07
			c0.53,0.01,1.07-0.01,1.6-0.05c1.16-0.09,1.98,0.43,2.03,1.29c0.05,0.84-0.65,1.48-1.78,1.5c-2.48,0.03-4.96,0.01-7.44,0.01
			C64.14,84.29,64.14,84.3,64.14,84.31z"/>
		<path class="st1" d="M80.42,47.28c1.54-1.57,2.95-3.01,4.38-4.45c0.26-0.26,0.52-0.52,0.82-0.72c0.67-0.47,1.29-0.4,1.81,0.17
			c0.46,0.5,0.47,1.29-0.04,1.84c-0.57,0.62-1.18,1.21-1.78,1.81c-1.27,1.28-2.53,2.57-3.81,3.84c-0.99,0.99-1.65,0.99-2.68,0.03
			c-0.66-0.62-1.3-1.25-1.92-1.9c-0.6-0.62-0.63-1.5-0.12-2.05c0.46-0.49,1.38-0.5,2,0.03C79.53,46.25,79.9,46.72,80.42,47.28z"/>
		<path class="st1" d="M80.48,65.31c1.51-1.54,2.95-3.01,4.39-4.47c0.24-0.24,0.48-0.48,0.75-0.67c0.64-0.44,1.34-0.35,1.82,0.2
			c0.45,0.52,0.43,1.31-0.09,1.84c-1.86,1.89-3.71,3.78-5.59,5.64c-1.02,1.01-1.7,0.97-2.72-0.07c-0.59-0.6-1.2-1.19-1.8-1.79
			c-0.65-0.65-0.7-1.54-0.14-2.11c0.52-0.53,1.43-0.5,2.06,0.1C79.58,64.36,79.96,64.77,80.48,65.31z"/>
		<path class="st1" d="M80.22,83.55c1.13-1.14,1.95-1.98,2.79-2.8c0.8-0.79,1.59-1.6,2.41-2.36c0.63-0.58,1.46-0.56,1.97-0.02
			c0.5,0.53,0.52,1.3-0.06,1.9c-1.93,1.97-3.87,3.94-5.85,5.86c-0.8,0.78-1.51,0.7-2.28-0.09c-0.67-0.69-1.35-1.36-2.01-2.05
			c-0.61-0.64-0.64-1.46-0.08-2.04c0.52-0.54,1.34-0.56,1.97,0.05C79.5,82.4,79.78,82.94,80.22,83.55z"/>
		<path class="st1" d="M43.97,31.31c-1.46-0.01-2.15-0.56-2.08-1.57c0.02-0.24,0.1-0.5,0.24-0.69c0.54-0.72,2.76-0.68,3.3,0.04
			c0.66,0.88,0.25,1.93-0.87,2.18C44.32,31.32,44.06,31.31,43.97,31.31z"/>
		<path class="st1" d="M39.78,29.98c-0.55,1.34-2.35,1.86-3.38,0.92c-0.32-0.29-0.56-0.98-0.45-1.38c0.11-0.39,0.68-0.7,1.11-0.92
			c0.27-0.14,0.66-0.04,1-0.03C39.13,28.59,39.39,28.81,39.78,29.98z"/>
		<path class="st1" d="M31.72,31.41c-0.44-0.15-0.99-0.19-1.3-0.49c-0.31-0.29-0.55-0.84-0.54-1.27c0.01-0.59,0.43-1.03,1.11-1.06
			c0.39-0.02,0.79-0.02,1.18-0.01c1,0.03,1.47,0.46,1.48,1.34c0.01,0.82-0.52,1.33-1.47,1.39c-0.14,0.01-0.28,0-0.42,0
			C31.74,31.34,31.73,31.38,31.72,31.41z"/>
		<path class="st1" d="M88.23,31.33c-1.35,0.01-2.01-0.59-1.86-1.68c0.12-0.82,0.59-1.07,1.98-1.07c1.17,0,1.73,0.33,1.84,1.06
			C90.32,30.6,89.49,31.33,88.23,31.33z"/>
		<path class="st1" d="M43.77,84.24c-0.62,0-1.24,0.05-1.86-0.01c-0.68-0.06-1.19-0.41-1.25-1.15c-0.06-0.78,0.33-1.35,1.08-1.5
			c0.71-0.14,1.45-0.14,2.18-0.14c0.59,0,1.18,0.07,1.77,0.15c0.7,0.1,1.11,0.5,1.15,1.24c0.05,0.73-0.29,1.24-0.98,1.37
			c-0.68,0.13-1.4,0.11-2.1,0.15C43.77,84.3,43.77,84.27,43.77,84.24z"/>
		<path class="st1" d="M43.73,45.31c0.74,0.06,1.42,0.1,2.09,0.19c0.6,0.08,0.96,0.45,1.02,1.06c0.06,0.64-0.1,1.18-0.76,1.45
			c-0.16,0.06-0.32,0.18-0.47,0.17c-1.32-0.03-2.64-0.05-3.95-0.15c-0.7-0.06-0.97-0.61-0.98-1.27c0-0.68,0.33-1.15,1.01-1.25
			C42.39,45.39,43.09,45.36,43.73,45.31z"/>
		<path class="st1" d="M43.18,63.27c0.93,0.1,1.74,0.16,2.55,0.27c0.66,0.09,1.07,0.46,1.12,1.16c0.05,0.7-0.16,1.21-0.9,1.41
			c-0.19,0.05-0.38,0.18-0.56,0.17c-1.23-0.05-2.46-0.09-3.69-0.19c-0.6-0.05-0.96-0.42-1.01-1.05c-0.05-0.65,0.14-1.2,0.8-1.41
			C42.07,63.44,42.68,63.37,43.18,63.27z"/>
	</g>
</g>
</svg>
