<?xml version="1.0" encoding="utf-8"?>
<!-- Generator: Adobe Illustrator 28.0.0, SVG Export Plug-In . SVG Version: 6.00 Build 0)  -->
<svg version="1.1" id="Capa_1" xmlns="http://www.w3.org/2000/svg" xmlns:xlink="http://www.w3.org/1999/xlink" x="0px" y="0px"
	 viewBox="0 0 120 120" style="enable-background:new 0 0 120 120;" xml:space="preserve">
<style type="text/css">
	.st0{fill:#FFFFFF;}
	.st1{fill:url(#SVGID_1_);}
	.st2{fill:url(#SVGID_00000174562641961688420200000000615755456386193283_);}
	.st3{fill:url(#SVGID_00000020358529595587927690000002076594130143603391_);}
</style>
<g>
	<g>
		<path class="st0" d="M60,1.58C27.74,1.58,1.58,27.73,1.58,60c0,32.27,26.16,58.43,58.43,58.43S118.42,92.26,118.42,60
			C118.42,27.73,92.27,1.58,60,1.58z"/>
	</g>
	<g>
		<g>
			<g>
				<g>
					<linearGradient id="SVGID_1_" gradientUnits="userSpaceOnUse" x1="28.8618" y1="74.7383" x2="91.1407" y2="74.7383">
						<stop  offset="0" style="stop-color:#006400"/>
						<stop  offset="0.7288" style="stop-color:#00BD00"/>
						<stop  offset="0.9888" style="stop-color:#00DE00"/>
					</linearGradient>
					<path class="st1" d="M83.19,65.13H36.81c-1.68,0-3.18,1.06-3.75,2.65l-3.98,11.26c-0.42,1.21-0.24,2.57,0.5,3.62
						c0.75,1.05,1.96,1.68,3.25,1.68h54.33c1.3,0,2.5-0.62,3.25-1.68c0.75-1.05,0.93-2.41,0.5-3.62l-3.97-11.26
						C86.38,66.19,84.88,65.13,83.19,65.13L83.19,65.13z"/>
				</g>
				
					<linearGradient id="SVGID_00000129179574051439558610000007300454085314820738_" gradientUnits="userSpaceOnUse" x1="56.5133" y1="82.1963" x2="63.4916" y2="82.1963">
					<stop  offset="0" style="stop-color:#006400"/>
					<stop  offset="0.7288" style="stop-color:#00BD00"/>
					<stop  offset="0.9888" style="stop-color:#00DE00"/>
				</linearGradient>
				
					<rect x="56.51" y="81.62" style="fill:url(#SVGID_00000129179574051439558610000007300454085314820738_);" width="6.98" height="1.16"/>
			</g>
			
				<linearGradient id="SVGID_00000152978841760174073820000014979520943073368243_" gradientUnits="userSpaceOnUse" x1="32.8343" y1="52.2131" x2="87.1637" y2="52.2131">
				<stop  offset="0" style="stop-color:#006400"/>
				<stop  offset="0.7288" style="stop-color:#00BD00"/>
				<stop  offset="0.9888" style="stop-color:#00DE00"/>
			</linearGradient>
			<path style="fill:url(#SVGID_00000152978841760174073820000014979520943073368243_);" d="M83.19,64.8H36.81V39.62h46.38
				 M83.19,35.65H36.81c-2.2,0-3.98,1.78-3.98,3.98v29.16c0,0,1.78,0,3.98,0h46.38c2.19,0,3.97,0,3.97,0V39.62
				C87.16,37.43,85.38,35.65,83.19,35.65L83.19,35.65z"/>
		</g>
	</g>
</g>
</svg>
