<?xml version="1.0" encoding="utf-8"?>
<!-- Generator: Adobe Illustrator 28.0.0, SVG Export Plug-In . SVG Version: 6.00 Build 0)  -->
<svg version="1.1" id="Capa_1" xmlns="http://www.w3.org/2000/svg" xmlns:xlink="http://www.w3.org/1999/xlink" x="0px" y="0px"
	 viewBox="0 0 120 120" style="enable-background:new 0 0 120 120;" xml:space="preserve">
<style type="text/css">
	.st0{fill:url(#SVGID_1_);}
	.st1{fill:#FFFFFF;}
</style>
<g>
	<g>
		<g>
			<radialGradient id="SVGID_1_" cx="60" cy="60" r="58.4239" gradientUnits="userSpaceOnUse">
				<stop  offset="0" style="stop-color:#80B0D8"/>
				<stop  offset="1" style="stop-color:#005981"/>
			</radialGradient>
			<path class="st0" d="M60,1.6C27.7,1.6,1.6,27.7,1.6,60c0,32.3,26.2,58.4,58.4,58.4c32.3,0,58.4-26.2,58.4-58.4
				C118.4,27.7,92.3,1.6,60,1.6z"/>
		</g>
	</g>
	<g>
		<path class="st1" d="M87,82.2c-0.2-1.4-0.5-2.6-0.7-4c1.8-0.2,2.1-1.4,2.1-2.9c0-13,0-25.9,0-38.9c0-2.3-0.4-2.7-2.7-2.7
			c-17.1,0-34.1,0-51.2,0c-2.3,0-2.7,0.4-2.7,2.7c0,13,0,26,0,39c0,2.3,0.4,2.7,2.8,2.7c6.5,0,13,0,19.4,0c0.6,0,1.1,0,1.7,0
			c-0.2,1.4-0.5,2.7-0.7,4.1c-0.4,0-0.9,0.1-1.3,0.1c-6.5,0-13.1,0-19.6,0c-3.9,0-6.4-2.5-6.4-6.4c0-13.3,0-26.6,0-40
			c0-4,2.5-6.4,6.5-6.4c17.3,0,34.5,0,51.8,0c4.1,0,6.6,2.4,6.6,6.6c0,13.3,0,26.5,0,39.8C92.4,79.5,90.5,81.7,87,82.2z"/>
		<path class="st1" d="M71,62.7c0.7,0.3,1.5,0.6,2.1,1c1.3,1,2.6,1.5,4.3,1.4c2-0.1,2.9,0.6,3.5,2.6c0.4,1.5,1.2,2.6,2.5,3.4
			c1.8,1.2,2.1,2.2,1.4,4.3c-0.5,1.5-0.5,2.9,0.1,4.4c0.7,1.8,0.3,3-1.3,4c-1.4,0.9-2.2,2.1-2.6,3.6c-0.5,1.9-1.5,2.6-3.4,2.5
			c-1.7-0.1-3.1,0.4-4.4,1.5c-1.3,1.1-2.7,1.1-4,0c-1.3-1.1-2.7-1.5-4.4-1.5c-2,0.1-2.9-0.6-3.4-2.5c-0.4-1.6-1.3-2.7-2.7-3.7
			c-1.6-1.1-2-2.2-1.3-4c0.6-1.5,0.6-3,0-4.5c-0.7-1.8-0.3-2.9,1.3-4c1.4-0.9,2.2-2.1,2.7-3.6c0.5-1.9,1.4-2.5,3.2-2.5
			c1.8,0.1,3.2-0.4,4.6-1.5C69.5,63.2,70.2,63.1,71,62.7z M71,87.7c5.6,0,10.1-4.5,10.1-10.1c0-5.6-4.6-10.2-10.2-10.2
			c-5.6,0-10.1,4.5-10.2,10.2C60.8,83.2,65.3,87.7,71,87.7z"/>
		<path class="st1" d="M59.9,48.1c-3.1,0-6.2,0-9.3,0c-2.1,0-3.5-1.3-3.5-3.1c0-1.8,1.4-3.1,3.5-3.1c6.3,0,12.6,0,19,0
			c2.1,0,3.5,1.3,3.5,3.1c0,1.8-1.4,3.1-3.5,3.1C66.3,48.1,63.1,48.1,59.9,48.1z"/>
		<path class="st1" d="M59.9,60.9c-6.2,0-12.4,0-18.6,0c-0.5,0-1,0.1-1.4-0.1c-0.5-0.4-1.2-0.9-1.3-1.5c-0.1-0.4,0.6-1.1,1.1-1.5
			c0.3-0.2,0.8-0.1,1.2-0.1c12.7,0,25.4,0,38.1,0c0.4,0,0.9-0.1,1.1,0.1c0.5,0.5,1.2,1.1,1.2,1.7c0,0.4-0.8,1-1.4,1.3
			c-0.3,0.2-0.8,0.1-1.2,0.1C72.5,60.9,66.2,60.9,59.9,60.9z"/>
		<path class="st1" d="M74.3,105.5c-0.3-2.3-0.6-4.4-0.8-6.5c-0.2-1.3-0.3-2.7-0.4-4c-0.1-0.7-0.3-1.9,0.1-2.2
			c1-0.8,2.2-1.4,3.4-1.7c1.1-0.3,2.2-0.2,3.7-0.3c1.9,4.5,3.9,9.3,5.9,14c-0.1,0.1-0.2,0.3-0.4,0.4c-1.4-0.5-2.9-0.9-4.2-1.6
			c-2-1.1-3.7-0.9-5.3,0.6C75.7,104.7,75.1,105,74.3,105.5z"/>
		<path class="st1" d="M67.5,105.4c-0.5-0.3-0.7-0.3-0.9-0.5c-2.3-2.3-4.8-2.3-7.5-0.8c-0.9,0.5-2,0.7-2.9,1.1
			c-0.1-0.1-0.2-0.2-0.4-0.3c2-4.7,4-9.4,5.9-14c1.4,0.1,2.7,0.1,3.9,0.2c2.1,0.2,3.4,1.9,3.2,3.9c-0.4,3-0.7,6.1-1.1,9.1
			C67.8,104.4,67.7,104.8,67.5,105.4z"/>
		<path class="st1" d="M60.2,65c-0.3,0.9-0.5,1.6-0.9,2.2c-0.2,0.4-0.8,0.9-1.2,0.9c-5.9,0.1-11.8,0-17.7,0c-1.1,0-1.9-0.4-1.8-1.6
			c0.1-1.2,0.9-1.5,2-1.5c5.2,0,10.5,0,15.7,0C57.5,65,58.8,65,60.2,65z"/>
		<path class="st1" d="M68.6,75.2c0-1.4,0-2.5,0-3.7c0-0.9,0.3-1.3,1.3-1.3c3.9,0.1,3.4-0.4,3.4,3.2c0,0.6,0,1.1,0,1.8
			c1.3,0,2.5,0,3.7,0c0.9,0,1.3,0.4,1.3,1.3c0,4.1,0.3,3.3-3.2,3.4c-0.5,0-1,0-1.8,0c0,1.2-0.1,2.3,0,3.4c0.1,1.2-0.4,1.6-1.6,1.6
			c-3.5-0.1-3.1,0.3-3.1-3.1c0-0.6,0-1.2,0-2c-1.4,0-2.6,0-3.8,0c-0.9,0-1.3-0.4-1.3-1.3c0-4.1-0.3-3.4,3.2-3.4
			C67.3,75.2,67.8,75.2,68.6,75.2z"/>
	</g>
</g>
</svg>
