<?xml version="1.0" encoding="utf-8"?>
<!-- Generator: Adobe Illustrator 28.0.0, SVG Export Plug-In . SVG Version: 6.00 Build 0)  -->
<svg version="1.1" id="Capa_1" xmlns="http://www.w3.org/2000/svg" xmlns:xlink="http://www.w3.org/1999/xlink" x="0px" y="0px"
	 viewBox="0 0 120 120" style="enable-background:new 0 0 120 120;" xml:space="preserve">
<style type="text/css">
	.st0{fill:#FFFFFF;}
	.st1{fill:url(#SVGID_1_);}
	.st2{fill:url(#SVGID_00000052088235342303435890000015927138531882115488_);}
	.st3{fill:url(#SVGID_00000077285733945641735140000011302329682246352520_);}
	.st4{fill:url(#SVGID_00000174575341375357593370000002668740241190107057_);}
	.st5{fill:url(#SVGID_00000151511721382068459450000008080754988463803820_);}
	.st6{fill:url(#SVGID_00000025410058694259888850000016924034286437344928_);}
	.st7{fill:url(#SVGID_00000032640210853264073810000008050005654740902052_);}
	.st8{fill:url(#SVGID_00000120559890885278634610000013728528152783871636_);}
	.st9{fill:url(#SVGID_00000015341602831473320880000017012565651317176453_);}
	.st10{fill:url(#SVGID_00000087398430408905315580000015457724834079330433_);}
</style>
<g>
	<g>
		<path class="st0" d="M60,1.6C27.7,1.6,1.6,27.7,1.6,60c0,32.3,26.2,58.4,58.4,58.4c32.3,0,58.4-26.2,58.4-58.4
			C118.4,27.7,92.3,1.6,60,1.6z"/>
	</g>
	<g>
		<g>
			<radialGradient id="SVGID_1_" cx="60" cy="60" r="35.8536" gradientUnits="userSpaceOnUse">
				<stop  offset="0" style="stop-color:#80B0D8"/>
				<stop  offset="1" style="stop-color:#005981"/>
			</radialGradient>
			<path class="st1" d="M28.3,59.9c0-10.7,0-21.5,0-32.2c0-0.9,0-1.7,0.2-2.6c0.6-2.6,2.9-4.5,5.5-4.7c0.5,0,0.9,0,1.4,0
				c16.5,0,32.9,0,49.4,0c0.9,0,2,0.1,2.8,0.4c2.5,1,3.8,2.9,3.9,5.5c0,0.7,0,1.5,0,2.2c0,18.4,0,36.8,0,55.2c0,0.8-0.2,1.3-0.7,1.9
				C86.5,90,82,94.4,77.6,98.9c-0.6,0.6-1.2,0.7-2,0.7c-10.7,0-21.5,0-32.2,0c-3,0-6,0-9,0c-2.7-0.1-4.7-1.4-5.7-4
				c-0.3-0.8-0.4-1.8-0.4-2.7C28.3,81.9,28.3,70.9,28.3,59.9z M89.1,83.1c0-0.4,0-0.7,0-1c0-18.4,0-36.7,0-55.1
				c0-2.7-1.5-4.1-4.1-4.1c-16.7,0-33.4,0-50.1,0c-2.4,0-4.1,1.8-4.1,4.1c0,22,0,44.1,0,66.1c0,2.3,1.7,4.1,4.1,4.1
				c13.1,0,26.2,0,39.2,0c0.3,0,0.6,0,1-0.1c0-2.7,0.1-5.3,0-7.9C75,86,77.6,83,81.2,83.1c2.3,0.1,4.5,0,6.8,0
				C88.4,83.1,88.7,83.1,89.1,83.1z M87.2,85.6c-0.1,0-0.2-0.1-0.2-0.1c-2,0-3.9,0-5.9,0c-2.1,0-3.4,1.4-3.5,3.4c0,1.9,0,3.7,0,5.6
				c0,0.2,0.1,0.3,0.1,0.5C80.9,91.9,84,88.8,87.2,85.6z"/>
			
				<radialGradient id="SVGID_00000066481757665792499660000007524715633406978187_" cx="60.0094" cy="37.2363" r="14.9752" gradientUnits="userSpaceOnUse">
				<stop  offset="0" style="stop-color:#80B0D8"/>
				<stop  offset="1" style="stop-color:#005981"/>
			</radialGradient>
			<path style="fill:url(#SVGID_00000066481757665792499660000007524715633406978187_);" d="M75,35.8c-0.7,0.2-1.3,0.4-2.1,0.7
				c0,0.4,0,0.7,0,1.1c0,2.6,0,5.2,0,7.8c0,1.2-0.3,1.5-1.5,1.7c-6.8,0.8-13.7,0.9-20.5,0.3c-0.9-0.1-1.7-0.2-2.6-0.3
				c-1.3-0.1-1.6-0.4-1.6-1.8c0-2.5,0-5,0-7.5c0-0.4,0-0.9,0-1.3c-1.4-0.5-2.8-0.9-4.1-1.4c-0.5-0.2-0.9-0.4-1-1
				c-0.2-0.7,0.2-1.3,1-1.6c1.8-0.6,3.5-1.2,5.3-1.8c3.8-1.3,7.5-2.5,11.2-3.8c0.7-0.2,1.3-0.2,1.9,0c5.2,1.8,10.5,3.6,15.7,5.5
				c1.4,0.5,1.6,1,0.9,2.3c-0.1,0.3-0.2,0.6-0.2,0.9c0,2.3,0,4.6,0,6.9c0,0.4,0,0.8,0.4,1.1c0.4,0.3,0.5,0.8,0.3,1.4
				c-0.2,0.5-0.6,0.8-1.2,0.8c-0.5,0-1.1,0.1-1.6,0c-0.4-0.1-0.9-0.4-1.1-0.7c-0.3-0.4-0.1-0.9,0.2-1.4c0.2-0.3,0.4-0.6,0.4-0.9
				c0-2.2,0-4.3,0-6.5C75.1,36,75.1,35.9,75,35.8z M49.3,37.3c0,2.5,0,4.9,0,7.4c7.1,0.8,14.1,0.9,21.1,0c0-2.5,0-4.8,0-7.2
				c-0.4,0.1-0.6,0.2-0.9,0.3c-2.8,1-5.7,1.9-8.5,2.9c-0.6,0.2-1.2,0.2-1.8,0c-1.7-0.6-3.3-1.1-5-1.7C52.6,38.3,51,37.8,49.3,37.3z
				 M73,33.8c-0.3-0.1-0.4-0.2-0.5-0.2c-4-1.4-8-2.8-11.9-4.1c-0.3-0.1-0.8,0-1.1,0.1c-2.5,0.8-5,1.7-7.5,2.5
				c-1.7,0.6-3.3,1.1-5.1,1.7c0.3,0.1,0.4,0.2,0.6,0.3c4.1,1.4,8.1,2.7,12.2,4.1c0.4,0.1,0.9,0.1,1.2-0.1c2.8-0.9,5.6-1.9,8.4-2.9
				C70.5,34.7,71.7,34.3,73,33.8z"/>
			
				<radialGradient id="SVGID_00000067215689981709675850000017818177112775633028_" cx="66.8764" cy="66.6685" r="9.8478" gradientUnits="userSpaceOnUse">
				<stop  offset="0" style="stop-color:#80B0D8"/>
				<stop  offset="1" style="stop-color:#005981"/>
			</radialGradient>
			<path style="fill:url(#SVGID_00000067215689981709675850000017818177112775633028_);" d="M66.9,65.4c4,0,7.9,0,11.9,0
				c0.4,0,0.7,0,1.1,0.1c0.6,0.2,0.9,0.6,0.9,1.2c0,0.6-0.3,1-0.9,1.1c-0.4,0.1-0.7,0.1-1.1,0.1c-7.9,0-15.8,0-23.7,0
				c-0.4,0-0.7,0-1.1-0.1c-0.6-0.1-0.9-0.5-1-1.1c0-0.6,0.3-1.1,0.9-1.2c0.3-0.1,0.6-0.1,0.9-0.1C58.9,65.4,62.9,65.4,66.9,65.4z"/>
			
				<radialGradient id="SVGID_00000097478603639745819590000016445188559547207867_" cx="66.878" cy="76.9469" r="9.8481" gradientUnits="userSpaceOnUse">
				<stop  offset="0" style="stop-color:#80B0D8"/>
				<stop  offset="1" style="stop-color:#005981"/>
			</radialGradient>
			<path style="fill:url(#SVGID_00000097478603639745819590000016445188559547207867_);" d="M66.9,78.2c-4,0-8,0-12,0
				c-0.3,0-0.6,0-0.9,0c-0.6-0.1-1-0.6-1-1.2c0-0.6,0.4-1.1,1.1-1.2c0.3,0,0.7,0,1,0c7.9,0,15.8,0,23.8,0c0.3,0,0.5,0,0.8,0
				c0.7,0.1,1.1,0.6,1.1,1.2c0,0.7-0.5,1.2-1.2,1.2c-0.2,0-0.5,0-0.7,0C74.9,78.2,70.9,78.2,66.9,78.2z"/>
			
				<radialGradient id="SVGID_00000096771524066648136660000000575981739695585943_" cx="66.8716" cy="56.385" r="9.8452" gradientUnits="userSpaceOnUse">
				<stop  offset="0" style="stop-color:#80B0D8"/>
				<stop  offset="1" style="stop-color:#005981"/>
			</radialGradient>
			<path style="fill:url(#SVGID_00000096771524066648136660000000575981739695585943_);" d="M66.8,57.6c-4,0-8.1,0-12.1,0
				c-1.2,0-1.8-0.4-1.8-1.3c0-0.8,0.5-1.2,1.7-1.2c8.1,0,16.2,0,24.4,0c0.3,0,0.5,0,0.8,0.1c0.6,0.2,0.9,0.6,0.9,1.2
				c0,0.6-0.3,1-0.9,1.1c-0.3,0.1-0.6,0-0.9,0C74.9,57.6,70.9,57.6,66.8,57.6C66.8,57.6,66.8,57.6,66.8,57.6z"/>
			
				<radialGradient id="SVGID_00000057107157832516316990000011686128915614892457_" cx="42.8191" cy="56.3923" r="3.5768" gradientUnits="userSpaceOnUse">
				<stop  offset="0" style="stop-color:#80B0D8"/>
				<stop  offset="1" style="stop-color:#005981"/>
			</radialGradient>
			<path style="fill:url(#SVGID_00000057107157832516316990000011686128915614892457_);" d="M46.4,56.4c0,0.7,0,1.3,0,2
				c0,1.1-0.4,1.5-1.5,1.6c-1.4,0-2.8,0-4.2,0c-1,0-1.4-0.5-1.4-1.5c0-1.4,0-2.8,0-4.2c0-1,0.5-1.4,1.5-1.4c1.4,0,2.8,0,4.2,0
				c1,0,1.4,0.4,1.5,1.5C46.4,55,46.4,55.7,46.4,56.4z M41.8,57.4c0.7,0,1.4,0,2,0c0-0.7,0-1.3,0-2c-0.7,0-1.3,0-2,0
				C41.8,56.1,41.8,56.7,41.8,57.4z"/>
			
				<radialGradient id="SVGID_00000064317821282285509940000002356185272819532711_" cx="42.8221" cy="76.9555" r="3.5784" gradientUnits="userSpaceOnUse">
				<stop  offset="0" style="stop-color:#80B0D8"/>
				<stop  offset="1" style="stop-color:#005981"/>
			</radialGradient>
			<path style="fill:url(#SVGID_00000064317821282285509940000002356185272819532711_);" d="M42.9,73.4c0.7,0,1.4,0,2.1,0
				c0.9,0,1.3,0.4,1.3,1.3c0,1.5,0,3.1,0,4.6c0,0.8-0.5,1.2-1.3,1.2c-1.5,0-3.1,0-4.6,0c-0.8,0-1.2-0.5-1.2-1.4c0-1.5,0-2.9,0-4.4
				c0-0.9,0.5-1.3,1.4-1.3C41.4,73.4,42.2,73.4,42.9,73.4z M41.8,75.9c0,0.7,0,1.4,0,2c0.7,0,1.4,0,2,0c0-0.7,0-1.3,0-2
				C43.2,75.9,42.5,75.9,41.8,75.9z"/>
			
				<radialGradient id="SVGID_00000016045430404487247130000003921523471159587751_" cx="42.8237" cy="87.2243" r="3.5665" gradientUnits="userSpaceOnUse">
				<stop  offset="0" style="stop-color:#80B0D8"/>
				<stop  offset="1" style="stop-color:#005981"/>
			</radialGradient>
			<path style="fill:url(#SVGID_00000016045430404487247130000003921523471159587751_);" d="M42.8,90.8c-0.7,0-1.4,0-2.1,0
				c-1,0-1.4-0.4-1.4-1.4c0-1.4,0-2.9,0-4.3c0-1,0.4-1.4,1.4-1.4c1.4,0,2.9,0,4.3,0c1,0,1.4,0.4,1.4,1.4c0,1.5,0,2.9,0,4.4
				c0,0.9-0.5,1.3-1.4,1.3C44.2,90.8,43.5,90.8,42.8,90.8z M43.8,86.2c-0.8,0-1.4,0-2,0c0,0.7,0,1.4,0,2c0.7,0,1.4,0,2,0
				C43.8,87.5,43.8,86.9,43.8,86.2z"/>
			
				<radialGradient id="SVGID_00000035514047348326599460000011588213121807875976_" cx="42.8227" cy="66.6631" r="3.5646" gradientUnits="userSpaceOnUse">
				<stop  offset="0" style="stop-color:#80B0D8"/>
				<stop  offset="1" style="stop-color:#005981"/>
			</radialGradient>
			<path style="fill:url(#SVGID_00000035514047348326599460000011588213121807875976_);" d="M42.8,70.2c-0.7,0-1.4,0-2.1,0
				c-1,0-1.4-0.4-1.4-1.4c0-1.4,0-2.9,0-4.3c0-1,0.4-1.4,1.4-1.4c1.4,0,2.9,0,4.3,0c1,0,1.4,0.4,1.4,1.4c0,1.4,0,2.8,0,4.2
				c0,1-0.5,1.4-1.5,1.5C44.2,70.2,43.5,70.2,42.8,70.2z M43.8,67.7c0-0.8,0-1.4,0-2c-0.7,0-1.4,0-2,0c0,0.7,0,1.4,0,2
				C42.5,67.7,43.1,67.7,43.8,67.7z"/>
			
				<radialGradient id="SVGID_00000016065362232218948870000009516106770628823960_" cx="60.5606" cy="87.2269" r="5.4172" gradientUnits="userSpaceOnUse">
				<stop  offset="0" style="stop-color:#80B0D8"/>
				<stop  offset="1" style="stop-color:#005981"/>
			</radialGradient>
			<path style="fill:url(#SVGID_00000016065362232218948870000009516106770628823960_);" d="M60.6,88.5c-1.9,0-3.9,0-5.8,0
				c-0.3,0-0.5,0-0.8,0c-0.6-0.1-1-0.5-1-1.1c0-0.6,0.4-1.1,1-1.3c0.3-0.1,0.5,0,0.8,0c3.9,0,7.7,0,11.6,0c0.2,0,0.3,0,0.5,0
				c0.7,0.1,1.2,0.5,1.2,1.2c0,0.7-0.4,1.3-1.2,1.3c-1.4,0-2.9,0-4.3,0C61.9,88.5,61.3,88.5,60.6,88.5z"/>
		</g>
	</g>
</g>
</svg>
