<?xml version="1.0" encoding="utf-8"?>
<!-- Generator: Adobe Illustrator 28.0.0, SVG Export Plug-In . SVG Version: 6.00 Build 0)  -->
<svg version="1.1" id="Capa_1" xmlns="http://www.w3.org/2000/svg" xmlns:xlink="http://www.w3.org/1999/xlink" x="0px" y="0px"
	 viewBox="0 0 120 120" style="enable-background:new 0 0 120 120;" xml:space="preserve">
<style type="text/css">
	.st0{fill:#FFFFFF;}
	.st1{fill:url(#SVGID_1_);}
	.st2{fill:url(#SVGID_00000114758971342462866510000014743616217377551018_);}
	.st3{fill:url(#SVGID_00000137122269565889996430000000746059104898395325_);}
	.st4{fill:url(#SVGID_00000163039987190833701260000009595647323706092935_);}
	.st5{fill:url(#SVGID_00000123421235432180094990000016685826640625539005_);}
</style>
<g>
	<g>
		<g>
			<path class="st0" d="M60,1.6C27.7,1.6,1.6,27.7,1.6,60c0,32.3,26.2,58.4,58.4,58.4s58.4-26.2,58.4-58.4
				C118.4,27.7,92.3,1.6,60,1.6z"/>
		</g>
	</g>
	<g>
		<radialGradient id="SVGID_1_" cx="60.0238" cy="49.0519" r="33.979" gradientUnits="userSpaceOnUse">
			<stop  offset="0" style="stop-color:#80B0D8"/>
			<stop  offset="1" style="stop-color:#005981"/>
		</radialGradient>
		<path class="st1" d="M96.4,80.4c-24.3,0-48.5,0-72.8,0c0-0.6,0-1,0-1.5c0-13.1,0-26.3,0-39.4c0-0.2,0-0.5,0-0.7
			c0.1-2.3,1.5-3.7,3.8-3.8c3.6,0,7.2,0,10.8,0c1.1,0,1.5-0.3,1.8-1.4c2.3-8.9,9.4-15,18.4-15.8c9.8-0.8,18.8,5.5,21.4,15.1
			c0.5,2,0.5,2,2.6,2c3.4,0,6.7,0,10.1,0c2.4,0,3.9,1.5,3.9,3.9c0,13.5,0,27,0,40.5C96.5,79.6,96.4,79.9,96.4,80.4z M80.7,39.5
			c-0.1,0.5-0.2,0.8-0.2,1.2c-1.5,9.9-7.9,16.5-17.9,18.1c-0.7,0.1-1.2,0.4-1.7,1c-0.7,0.9-1.5,1.9-2.4,2.6c-1.4,1-2.9,1.9-4.5,2.4
			c-1.9,0.6-3-0.8-2.3-2.7c0.2-0.6,0.6-1.3,0.7-1.9c0.4-1.5-0.1-2.6-1.3-3.2c-6.7-3.4-10.5-8.8-11.5-16.3c-0.1-0.9-0.5-1.2-1.4-1.2
			c-2.5,0-5,0-7.5,0c-2.3,0-2.7,0.5-2.7,2.8c0,10.3,0,20.6,0,30.9c0,2.2,0.4,2.7,2.7,2.7c19.6,0,39.2,0,58.8,0
			c2.2,0,2.6-0.5,2.6-2.7c0-10.3,0-20.5,0-30.8c0-0.3,0-0.7,0-1c-0.1-1.1-0.6-1.8-1.7-1.8C87.2,39.5,84,39.5,80.7,39.5z M55.5,61.1
			c1.4-0.8,2.7-2,3.5-3.5c0.6-1.1,1.4-1.5,2.6-1.6c12.2-1,19.6-13.7,14.7-24.9C72.7,23,63.5,18.7,55,21.3
			c-8.5,2.5-14,11.1-12.5,19.9c1.1,6.2,4.5,10.7,10.2,13.4c1.2,0.6,2,1.4,2.3,2.6C55.2,58.4,55.3,59.7,55.5,61.1z"/>
		
			<radialGradient id="SVGID_00000005981859841088265230000013081527264082576295_" cx="60" cy="84.2503" r="29.5623" gradientUnits="userSpaceOnUse">
			<stop  offset="0" style="stop-color:#80B0D8"/>
			<stop  offset="1" style="stop-color:#005981"/>
		</radialGradient>
		<path style="fill:url(#SVGID_00000005981859841088265230000013081527264082576295_);" d="M101.7,81.3c0,3-1.9,5.4-4.6,5.9
			c-0.6,0.1-1.3,0.1-1.9,0.1c-23.5,0-47,0-70.5,0c-3.9,0-6.2-2.1-6.4-5.9c0.4,0,0.8-0.1,1.2-0.1c9.5,0,19.1,0,28.6,0
			c0.8,0,1.4,0.1,1.7,1c0.3,0.9,1.1,1.2,2,1.2c5.5,0,10.9,0,16.4,0c1,0,1.8-0.3,2.1-1.3c0.3-0.8,0.8-0.9,1.6-0.9c4,0,8,0,12,0
			c5.3,0,10.7,0,16,0C100.5,81.3,101,81.3,101.7,81.3z"/>
		
			<radialGradient id="SVGID_00000138531530570392292730000002117245540867070124_" cx="60.0223" cy="35.4121" r="10.344" gradientUnits="userSpaceOnUse">
			<stop  offset="0" style="stop-color:#80B0D8"/>
			<stop  offset="1" style="stop-color:#005981"/>
		</radialGradient>
		<path style="fill:url(#SVGID_00000138531530570392292730000002117245540867070124_);" d="M46,35.3c0.7-0.3,1.2-0.4,1.6-0.6
			c3.8-1.1,7.6-2.2,11.4-3.2c0.7-0.2,1.5-0.2,2.1,0c3.8,1,7.6,2.1,11.4,3.2c0.5,0.1,0.9,0.3,1.6,0.6c-0.6,0.3-0.8,0.4-1.1,0.5
			c-4.1,1.2-8.1,2.4-12.2,3.5c-0.4,0.1-1,0.1-1.4,0c-4.1-1.1-8.2-2.3-12.2-3.5C46.8,35.8,46.5,35.6,46,35.3z"/>
		
			<radialGradient id="SVGID_00000126322008344395730050000006947667255315013553_" cx="60.4155" cy="42.0442" r="6.9083" gradientUnits="userSpaceOnUse">
			<stop  offset="0" style="stop-color:#80B0D8"/>
			<stop  offset="1" style="stop-color:#005981"/>
		</radialGradient>
		<path style="fill:url(#SVGID_00000126322008344395730050000006947667255315013553_);" d="M69.2,37.8c0,2,0,3.7,0,5.4
			c0,1-0.8,1.6-1.6,1.9c-1.6,0.5-3.3,0.9-5,1.2c-2.8,0.4-5.7,0.1-8.4-0.7c-2.2-0.7-2.6-1.3-2.6-3.6c0-1.2,0-2.4,0-3.9
			c1.2,0.3,2.3,0.5,3.2,0.9c3.5,1.5,6.9,1.5,10.3,0C66.4,38.4,67.7,38.2,69.2,37.8z"/>
		
			<radialGradient id="SVGID_00000092436703831564428700000016546719516091055291_" cx="47.2186" cy="39.733" r="2.1972" gradientUnits="userSpaceOnUse">
			<stop  offset="0" style="stop-color:#80B0D8"/>
			<stop  offset="1" style="stop-color:#005981"/>
		</radialGradient>
		<path style="fill:url(#SVGID_00000092436703831564428700000016546719516091055291_);" d="M47.3,36.7c0.1,0.3,0.2,0.6,0.3,0.9
			c0.2,1.3,0.3,2.7,0.5,4c0.1,0.6-0.1,1.2-0.8,1.1c-0.3,0-0.9-0.6-0.9-0.8c0.1-1.7,0.4-3.4,0.7-5.1C47.1,36.8,47.2,36.8,47.3,36.7z"
			/>
	</g>
</g>
</svg>
