<?xml version="1.0" encoding="utf-8"?>
<!-- Generator: Adobe Illustrator 28.0.0, SVG Export Plug-In . SVG Version: 6.00 Build 0)  -->
<svg version="1.1" id="Capa_1" xmlns="http://www.w3.org/2000/svg" xmlns:xlink="http://www.w3.org/1999/xlink" x="0px" y="0px"
	 viewBox="0 0 120 120" style="enable-background:new 0 0 120 120;" xml:space="preserve">
<style type="text/css">
	.st0{fill:url(#SVGID_1_);}
	.st1{fill:#FFFFFF;}
</style>
<g>
	<g>
		<radialGradient id="SVGID_1_" cx="60" cy="60" r="58.4231" gradientUnits="userSpaceOnUse">
			<stop  offset="0" style="stop-color:#80B0D8"/>
			<stop  offset="1" style="stop-color:#005981"/>
		</radialGradient>
		<path class="st0" d="M60,1.6C27.7,1.6,1.6,27.7,1.6,60c0,32.3,26.2,58.4,58.4,58.4c32.3,0,58.4-26.2,58.4-58.4
			C118.4,27.7,92.3,1.6,60,1.6z"/>
	</g>
	<g>
		<path class="st1" d="M24.3,60c0-11,0-22,0-33c0-6.4,4.2-10.8,10.6-10.9c16.8-0.1,33.6-0.1,50.3,0c6,0,10.4,4.6,10.4,10.6
			c0,22.1,0,44.1,0,66.2c0,6.5-4.5,11-11,11c-16.4,0-32.8,0-49.2,0c-6.8,0-11.1-4.4-11.1-11.1C24.3,81.8,24.3,70.9,24.3,60z
			 M29.7,60C29.7,60,29.8,60,29.7,60c0,11,0,22.1,0,33.1c0,0.7,0.1,1.4,0.3,2c0.7,2.2,2.6,3.4,5.3,3.4c16.4,0,32.7,0,49.1,0
			c3.9,0,5.8-2,5.8-5.8c0-21.8,0-43.7,0-65.5c0-3.8-1.9-5.7-5.7-5.8c-16.3,0-32.6,0-48.9,0c-4,0-5.9,1.8-5.9,5.8
			C29.7,38.2,29.7,49.1,29.7,60z"/>
		<path class="st1" d="M51.1,48c-3.8-7.4-3.2-12.5,1.8-16.2c4.2-3.2,10.1-2.8,14,0.7c3.5,3.2,5.4,9.4,0.9,15.4
			c0.3,0.2,0.6,0.4,0.9,0.5c5.5,3.1,8.6,7.8,9.7,13.9c0.2,1.4-0.9,2.9-2.3,3c-0.5,0.1-1.1,0-1.6,0c-10.1,0-20.1-0.1-30.2,0
			c-3.2,0-4.2-1.7-3.5-4.5c1.3-5.5,4.5-9.4,9.2-12.3C50.3,48.4,50.7,48.2,51.1,48z M71.9,59.9c-1.4-4.7-7.2-8.3-12.9-8.2
			c-5.2,0.1-11,4-12,8.2C55.3,59.9,63.6,59.9,71.9,59.9z M65,40.7c0-3.1-2.5-5.5-5.6-5.4c-3,0-5.4,2.5-5.4,5.5c0,3,2.5,5.6,5.6,5.5
			C62.5,46.3,65,43.8,65,40.7z"/>
		<path class="st1" d="M60,79.1c-7.2,0-14.5,0-21.7,0c-1.9,0-2.9-0.9-2.9-2.6c0-1.5,0.9-2.5,2.3-2.7c0.5-0.1,1,0,1.5,0
			c13.9,0,27.7,0,41.6,0c0.5,0,1,0,1.5,0.1c1.6,0.2,2.4,1.2,2.4,2.8c0,1.6-0.9,2.5-2.6,2.5c-3.1,0-6.3,0-9.4,0
			C68.4,79.2,64.2,79.2,60,79.1C60,79.1,60,79.1,60,79.1z"/>
		<path class="st1" d="M59.8,90.1c-7.2,0-14.3,0-21.5,0c-2.1,0-3.2-1.1-3-3c0.1-1.3,0.9-2.2,2.2-2.4c0.4,0,0.7,0,1.1,0
			c14.2,0,28.4,0,42.6,0c2.3,0,3.4,0.9,3.3,2.8c-0.1,1.6-1,2.5-2.8,2.5c-2.5,0-4.9,0-7.4,0C69.6,90.1,64.7,90.1,59.8,90.1z"/>
	</g>
</g>
</svg>
