<?xml version="1.0" encoding="utf-8"?>
<!-- Generator: Adobe Illustrator 28.0.0, SVG Export Plug-In . SVG Version: 6.00 Build 0)  -->
<svg version="1.1" id="Capa_1" xmlns="http://www.w3.org/2000/svg" xmlns:xlink="http://www.w3.org/1999/xlink" x="0px" y="0px"
	 viewBox="0 0 120 120" style="enable-background:new 0 0 120 120;" xml:space="preserve">
<style type="text/css">
	.st0{fill:#FFFFFF;}
	.st1{fill:url(#SVGID_1_);}
	.st2{fill:url(#SVGID_00000128476254987667318110000003158200104360425367_);}
	.st3{fill:url(#SVGID_00000035501885038191132740000013689403317611808161_);}
	.st4{fill:url(#SVGID_00000050624235066581954550000011356748204348619436_);}
</style>
<g>
	<g>
		<path class="st0" d="M60,1.58C27.73,1.58,1.58,27.73,1.58,60c0,32.27,26.16,58.43,58.42,58.43c32.27,0,58.42-26.16,58.42-58.43
			C118.42,27.73,92.27,1.58,60,1.58z"/>
	</g>
	<g>
		<linearGradient id="SVGID_1_" gradientUnits="userSpaceOnUse" x1="17.2649" y1="63.4105" x2="84.3212" y2="63.4105">
			<stop  offset="0" style="stop-color:#1E8037"/>
			<stop  offset="1" style="stop-color:#479C37"/>
		</linearGradient>
		<path class="st1" d="M84.32,62.97C84.25,82.47,68.4,97.65,49.4,96.9c-16.1-0.64-29.67-12.98-31.83-28.95
			c-2.5-18.51,10.67-35.67,29.17-37.79c10.76-1.24,20.07,2.08,27.84,9.67c0.62,0.61,0.65,0.97-0.11,1.38
			c-0.12,0.07-0.25,0.15-0.34,0.25c-0.77,0.8-1.33,0.63-2.14-0.12c-8.93-8.2-19.33-10.77-30.81-6.95
			c-11.6,3.86-18.58,12.22-20.62,24.3c-2.84,16.79,9.12,32.79,25.93,35.07c16.72,2.27,31.93-8.94,34.61-25.61
			c1.01-6.31,0.09-12.42-2.75-18.2c-0.18-0.37-0.42-1.03-0.26-1.2c0.53-0.54,1.21-0.94,1.88-1.33c0.06-0.03,0.45,0.36,0.58,0.61
			c1.99,3.79,3.17,7.82,3.59,12.07C84.25,61.2,84.28,62.33,84.32,62.97z"/>
		
			<linearGradient id="SVGID_00000053534582398489733620000004915009928521808306_" gradientUnits="userSpaceOnUse" x1="47.9121" y1="44.6889" x2="102.7351" y2="44.6889">
			<stop  offset="0" style="stop-color:#1E8037"/>
			<stop  offset="1" style="stop-color:#479C37"/>
		</linearGradient>
		<path style="fill:url(#SVGID_00000053534582398489733620000004915009928521808306_);" d="M79.93,36.14
			c-1.23-2.99,0.55-4.71,3.06-6.32c3.05-1.96,5.88-4.24,8.85-6.32c0.43-0.3,1.2-0.54,1.58-0.35c0.38,0.19,0.63,0.95,0.66,1.48
			c0.15,2.18,0.22,4.36,0.25,6.54c0.01,0.76,0.29,1.14,0.99,1.39c2.12,0.76,4.23,1.54,6.32,2.39c0.46,0.19,1.08,0.67,1.1,1.05
			c0.03,0.46-0.39,1.1-0.81,1.41c-3.7,2.75-7.45,5.43-11.17,8.16c-0.67,0.49-1.27,0.59-2.05,0.28c-2.19-0.87-4.39-1.72-6.62-2.48
			c-0.43-0.15-1.12-0.05-1.49,0.21c-8.71,6.27-17.4,12.58-26.08,18.91c-0.39,0.29-0.71,0.84-0.82,1.32
			c-0.38,1.67-1.75,2.71-3.4,2.45c-1.57-0.24-2.59-1.69-2.36-3.33c0.23-1.62,1.67-2.59,3.4-2.41c0.46,0.05,1.05-0.08,1.42-0.35
			c8.74-6.3,17.45-12.64,26.18-18.94c0.73-0.53,1.1-1.06,1-2C79.85,38.3,79.93,37.35,79.93,36.14z"/>
		
			<linearGradient id="SVGID_00000003094636056973689240000000214630293271651213_" gradientUnits="userSpaceOnUse" x1="28.1599" y1="63.4071" x2="73.4451" y2="63.4071">
			<stop  offset="0" style="stop-color:#1E8037"/>
			<stop  offset="1" style="stop-color:#479C37"/>
		</linearGradient>
		<path style="fill:url(#SVGID_00000003094636056973689240000000214630293271651213_);" d="M51.13,86.08
			c-11.84,0.05-21.72-8.85-22.86-20.26c-1.33-13.39,8.72-24.79,22.2-25.07c5.8-0.12,10.9,1.86,15.3,5.65
			c0.58,0.5,0.49,0.77-0.08,1.18c-1.53,1.1-1.48,1.08-3.05-0.02C55.9,42.8,48.7,42.11,41.45,46c-7.13,3.83-10.75,10.11-10.39,18.22
			c0.38,8.43,4.75,14.48,12.56,17.58c13.64,5.43,28.13-5.46,26.9-20.07c-0.15-1.77-0.65-3.53-1.2-5.22
			c-0.32-0.99-0.22-1.49,0.66-2.04c1.36-0.85,1.33-0.91,1.9,0.57c5.35,13.83-3.48,28.83-18.14,30.82
			C52.76,86.01,51.77,86.03,51.13,86.08z"/>
		
			<linearGradient id="SVGID_00000057140824444094227350000010540358395860595873_" gradientUnits="userSpaceOnUse" x1="39.7234" y1="63.3953" x2="61.8632" y2="63.3953">
			<stop  offset="0" style="stop-color:#1E8037"/>
			<stop  offset="1" style="stop-color:#479C37"/>
		</linearGradient>
		<path style="fill:url(#SVGID_00000057140824444094227350000010540358395860595873_);" d="M61.86,63.1
			c-0.02,5.26-3.33,9.63-8.02,10.94c-4.74,1.32-9.77-0.57-12.37-4.66c-2.66-4.18-2.26-9.62,0.96-13.26
			c3.33-3.77,8.58-4.86,13.1-2.72c1.21,0.57,1.17,0.59,0.16,1.45c-0.94,0.79-1.82,0.93-3.05,0.6c-4.55-1.22-9.16,1.9-9.94,6.59
			c-0.79,4.68,2.56,9.08,7.24,9.52c4.82,0.45,8.96-3.17,9.05-7.92c0.02-0.95,1.33-2.58,2.22-2.69c0.13-0.02,0.41,0.23,0.44,0.39
			C61.77,62.03,61.82,62.73,61.86,63.1z"/>
	</g>
</g>
</svg>
