<?xml version="1.0" encoding="utf-8"?>
<!-- Generator: Adobe Illustrator 28.0.0, SVG Export Plug-In . SVG Version: 6.00 Build 0)  -->
<svg version="1.1" id="Capa_1" xmlns="http://www.w3.org/2000/svg" xmlns:xlink="http://www.w3.org/1999/xlink" x="0px" y="0px"
	 viewBox="0 0 120 120" style="enable-background:new 0 0 120 120;" xml:space="preserve">
<style type="text/css">
	.st0{fill:#FFFFFF;}
	.st1{fill:url(#SVGID_1_);}
	.st2{fill:url(#SVGID_00000180341880962767358430000014313974165637704324_);}
	.st3{fill:url(#SVGID_00000068669547851261006830000003489268308346563743_);}
	.st4{fill:url(#SVGID_00000008856435134092740150000009750103939541677491_);}
	.st5{fill:url(#SVGID_00000167359217292110335860000013469655958321380486_);}
	.st6{fill:url(#SVGID_00000125600327866081031040000002681489164700902030_);}
	.st7{fill:url(#SVGID_00000010272729046235172590000000082423630741247900_);}
	.st8{fill:url(#SVGID_00000020365810350959423300000001389956600162299015_);}
	.st9{fill:url(#SVGID_00000166672608072971505880000004471627155302552705_);}
	.st10{fill:url(#SVGID_00000115480084814115033700000002330571957970493628_);}
	.st11{fill:url(#SVGID_00000000937524419910407950000012784559194018282932_);}
	.st12{fill:url(#SVGID_00000015341786596653599800000008902095791863517860_);}
	.st13{fill:url(#SVGID_00000119107073529872849550000012039088167844982941_);}
	.st14{fill:url(#SVGID_00000078033373316242433080000006278011788386738065_);}
</style>
<g>
	<g>
		<path class="st0" d="M60,1.58C27.73,1.58,1.58,27.73,1.58,60c0,32.27,26.16,58.43,58.42,58.43c32.27,0,58.42-26.16,58.42-58.43
			C118.42,27.73,92.27,1.58,60,1.58z"/>
	</g>
	<g>
		<linearGradient id="SVGID_1_" gradientUnits="userSpaceOnUse" x1="34.6651" y1="60" x2="88.813" y2="60">
			<stop  offset="0" style="stop-color:#1E8037"/>
			<stop  offset="1" style="stop-color:#479C37"/>
		</linearGradient>
		<path class="st1" d="M88.76,69.68c0,0.64,0,0.96,0,1.28c0,8.36,0,16.72-0.01,25.08c0,2.75-1.5,4.23-4.28,4.23
			c-15.18,0-30.35,0-45.53,0c-2.83,0-4.28-1.48-4.28-4.32c0-23.95,0-47.9,0-71.84c0-2.98,1.42-4.38,4.42-4.38
			c9.04,0,18.09-0.01,27.13,0.03c0.57,0,1.28,0.27,1.7,0.66c6.74,6.28,13.44,12.61,20.15,18.92c1.04,0.98,0.97,2.15-0.16,3.02
			c-0.51,0.39-0.97,0.86-1.61,1.44c0-0.93,0-1.74,0-2.68c-0.53,0-0.89,0-1.26,0c-4.76,0-9.52,0-14.29,0c-3.17,0-4.64-1.48-4.64-4.67
			c-0.01-4.32,0-8.63,0-12.95c0-0.37,0-0.74,0-1.2c-0.43-0.02-0.76-0.05-1.09-0.05c-8.63,0-17.27,0-25.9,0c-1.63,0-1.97,0.34-1.97,2
			c0,23.78,0,47.55,0,71.33c0,1.92,0.27,2.18,2.2,2.18c14.94,0,29.87,0,44.81,0c1.76,0,2.08-0.32,2.08-2.11
			c0-7.19,0.02-14.39-0.02-21.58c-0.01-1.1,0.21-1.99,1.04-2.73C87.74,70.91,88.13,70.39,88.76,69.68z M83.24,38.62
			c0.04-0.08,0.07-0.16,0.11-0.24c-4.84-4.55-9.68-9.09-14.71-13.82c0,4.4-0.02,8.52,0.02,12.64c0.01,0.93,0.67,1.38,1.58,1.4
			c0.96,0.02,1.91,0.01,2.87,0.01C76.49,38.62,79.87,38.62,83.24,38.62z"/>
		
			<linearGradient id="SVGID_00000114055664970944372620000000974216124643947184_" gradientUnits="userSpaceOnUse" x1="54.7951" y1="68.7146" x2="100.3358" y2="68.7146">
			<stop  offset="0" style="stop-color:#1E8037"/>
			<stop  offset="1" style="stop-color:#479C37"/>
		</linearGradient>
		<path style="fill:url(#SVGID_00000114055664970944372620000000974216124643947184_);" d="M100.34,51.66
			c-0.48,0.87-0.81,1.86-1.45,2.6c-7.21,8.3-14.47,16.55-21.72,24.82c-2.71,3.09-5.41,6.19-8.14,9.26c-0.37,0.42-0.87,0.78-1.38,1
			c-3.5,1.47-7.02,2.91-10.56,4.29c-0.54,0.21-1.32,0.26-1.8,0.02c-0.73-0.37-0.48-1.16-0.3-1.85c0.97-3.67,1.91-7.35,2.9-11.01
			c0.15-0.54,0.44-1.08,0.8-1.5c9.92-11.35,19.85-22.68,29.78-34.01c1.78-2.03,3.9-2.18,5.92-0.43c1.42,1.24,2.84,2.47,4.26,3.71
			c0.9,0.78,1.43,1.74,1.41,2.96C100.16,51.56,100.25,51.61,100.34,51.66z M67.88,85.83c8.67-9.89,17.29-19.73,25.95-29.61
			c-2.3-1.91-4.48-3.72-6.72-5.58c-8.68,9.9-17.28,19.72-25.94,29.6C63.45,82.13,65.62,83.95,67.88,85.83z M95.5,54.32
			c0.62-0.71,1.2-1.34,1.74-1.99c0.49-0.59,0.47-1.22-0.11-1.73c-1.55-1.39-3.12-2.76-4.71-4.11c-0.53-0.45-1.16-0.46-1.67,0.06
			c-0.66,0.68-1.26,1.41-1.95,2.2C91.05,50.61,93.22,52.42,95.5,54.32z M57.91,90.59c2.72-1.11,5.21-2.13,7.87-3.22
			c-2.01-1.67-3.84-3.19-5.77-4.8C59.3,85.26,58.64,87.79,57.91,90.59z"/>
		
			<linearGradient id="SVGID_00000044884486056036959730000000570128335813132459_" gradientUnits="userSpaceOnUse" x1="43.4932" y1="54.9678" x2="77.651" y2="54.9678">
			<stop  offset="0" style="stop-color:#1E8037"/>
			<stop  offset="1" style="stop-color:#479C37"/>
		</linearGradient>
		<path style="fill:url(#SVGID_00000044884486056036959730000000570128335813132459_);" d="M77.65,53.8
			c-0.71,0.81-1.29,1.53-1.94,2.17c-0.2,0.2-0.62,0.26-0.94,0.26c-9.87,0.01-19.73,0.01-29.6,0.01c-1.15,0-1.64-0.38-1.68-1.21
			c-0.04-0.84,0.48-1.32,1.57-1.32c10.69-0.01,21.38,0,32.07,0.01C77.23,53.71,77.33,53.74,77.65,53.8z"/>
		
			<linearGradient id="SVGID_00000044861039722311587640000017650042926640155793_" gradientUnits="userSpaceOnUse" x1="43.4943" y1="60.0008" x2="73.2123" y2="60.0008">
			<stop  offset="0" style="stop-color:#1E8037"/>
			<stop  offset="1" style="stop-color:#479C37"/>
		</linearGradient>
		<path style="fill:url(#SVGID_00000044861039722311587640000017650042926640155793_);" d="M73.21,58.84
			c-0.68,0.79-1.23,1.47-1.85,2.1c-0.18,0.19-0.54,0.29-0.82,0.29c-8.52,0.02-17.05,0.01-25.57,0.02c-0.83,0-1.42-0.3-1.48-1.2
			c-0.06-0.8,0.5-1.29,1.48-1.29c9.24-0.01,18.48-0.01,27.73-0.01C72.8,58.75,72.9,58.79,73.21,58.84z"/>
		
			<linearGradient id="SVGID_00000069371509314165855170000004140302415130556827_" gradientUnits="userSpaceOnUse" x1="43.4989" y1="65.0338" x2="68.9056" y2="65.0338">
			<stop  offset="0" style="stop-color:#1E8037"/>
			<stop  offset="1" style="stop-color:#479C37"/>
		</linearGradient>
		<path style="fill:url(#SVGID_00000069371509314165855170000004140302415130556827_);" d="M68.91,63.76
			c-0.79,0.91-1.37,1.63-2.01,2.28c-0.18,0.19-0.56,0.25-0.84,0.25c-6.99,0.01-13.98,0.01-20.97,0.01c-0.14,0-0.28,0-0.41-0.02
			c-0.68-0.11-1.16-0.43-1.18-1.18c-0.02-0.78,0.4-1.21,1.15-1.31c0.27-0.04,0.55-0.03,0.82-0.03c7.37,0,14.73,0,22.1,0
			C67.91,63.76,68.25,63.76,68.91,63.76z"/>
		
			<linearGradient id="SVGID_00000062155302401463491660000016625006873886737823_" gradientUnits="userSpaceOnUse" x1="47.8597" y1="33.5791" x2="57.9189" y2="33.5791">
			<stop  offset="0" style="stop-color:#1E8037"/>
			<stop  offset="1" style="stop-color:#479C37"/>
		</linearGradient>
		<path style="fill:url(#SVGID_00000062155302401463491660000016625006873886737823_);" d="M52.93,28.55
			c2.79,0.01,5.01,2.27,4.99,5.06c-0.02,2.8-2.28,5.03-5.06,5c-2.78-0.03-5.02-2.29-5-5.07C47.87,30.78,50.15,28.54,52.93,28.55z
			 M50.39,33.53c-0.02,1.39,1.12,2.55,2.52,2.57c1.3,0.01,2.49-1.16,2.51-2.48c0.02-1.33-1.1-2.52-2.42-2.56
			C51.62,31.01,50.41,32.15,50.39,33.53z"/>
		
			<linearGradient id="SVGID_00000144334004216109039810000011750507453742528401_" gradientUnits="userSpaceOnUse" x1="43.5012" y1="70.0712" x2="64.3215" y2="70.0712">
			<stop  offset="0" style="stop-color:#1E8037"/>
			<stop  offset="1" style="stop-color:#479C37"/>
		</linearGradient>
		<path style="fill:url(#SVGID_00000144334004216109039810000011750507453742528401_);" d="M64.32,69
			c-0.61,0.71-1.14,1.38-1.74,1.98c-0.21,0.21-0.6,0.33-0.91,0.33c-5.58,0.02-11.16,0.01-16.74,0.01c-0.84,0-1.42-0.34-1.43-1.23
			c-0.01-0.83,0.49-1.25,1.3-1.25c6.4,0,12.8,0,19.2,0.01C64.06,68.84,64.12,68.89,64.32,69z"/>
		
			<linearGradient id="SVGID_00000021118969743367886390000004180989211406632357_" gradientUnits="userSpaceOnUse" x1="43.5471" y1="75.1321" x2="59.9978" y2="75.1321">
			<stop  offset="0" style="stop-color:#1E8037"/>
			<stop  offset="1" style="stop-color:#479C37"/>
		</linearGradient>
		<path style="fill:url(#SVGID_00000021118969743367886390000004180989211406632357_);" d="M60,73.83c-1.14,1.48-1.97,2.73-4.06,2.6
			c-3.51-0.22-7.05-0.06-10.57-0.07c-0.37,0-0.83,0.05-1.09-0.14c-0.34-0.25-0.71-0.71-0.72-1.08c-0.01-0.38,0.36-0.81,0.66-1.13
			c0.15-0.16,0.51-0.17,0.78-0.17C49.91,73.82,54.83,73.83,60,73.83z"/>
		
			<linearGradient id="SVGID_00000088110665188758517940000000191624632154016388_" gradientUnits="userSpaceOnUse" x1="57.7447" y1="43.7165" x2="63.0121" y2="43.7165">
			<stop  offset="0" style="stop-color:#1E8037"/>
			<stop  offset="1" style="stop-color:#479C37"/>
		</linearGradient>
		<path style="fill:url(#SVGID_00000088110665188758517940000000191624632154016388_);" d="M59.42,37.51
			c2.33,1.35,3.45,3.37,3.56,5.97c0.07,1.6,0.03,3.21,0.01,4.82c-0.01,1.07-0.49,1.63-1.3,1.61c-0.79-0.01-1.23-0.59-1.24-1.67
			c-0.01-1.23-0.06-2.46,0.01-3.69c0.11-2.22-0.49-4.05-2.7-5.11C58.33,38.78,58.85,38.17,59.42,37.51z"/>
		
			<linearGradient id="SVGID_00000108296913743380118890000003885435544319106701_" gradientUnits="userSpaceOnUse" x1="42.8345" y1="43.7116" x2="48.0536" y2="43.7116">
			<stop  offset="0" style="stop-color:#1E8037"/>
			<stop  offset="1" style="stop-color:#479C37"/>
		</linearGradient>
		<path style="fill:url(#SVGID_00000108296913743380118890000003885435544319106701_);" d="M46.36,37.51
			c0.6,0.68,1.11,1.27,1.7,1.95c-2.42,1.12-2.85,3.19-2.71,5.56c0.07,1.09,0.02,2.19,0.01,3.28c-0.01,1.06-0.47,1.66-1.28,1.62
			c-0.97-0.05-1.24-0.69-1.23-1.55c0.01-1.71-0.04-3.42,0.02-5.13C42.96,40.72,44.17,38.85,46.36,37.51z"/>
		
			<linearGradient id="SVGID_00000046305536807866768790000018140090591749404834_" gradientUnits="userSpaceOnUse" x1="43.4903" y1="80.1364" x2="55.6859" y2="80.1364">
			<stop  offset="0" style="stop-color:#1E8037"/>
			<stop  offset="1" style="stop-color:#479C37"/>
		</linearGradient>
		<path style="fill:url(#SVGID_00000046305536807866768790000018140090591749404834_);" d="M55.65,78.89
			c0.03,0.18,0.04,0.22,0.04,0.25c-0.48,2.24-0.48,2.24-2.77,2.24c-2.6,0-5.2,0-7.81,0c-1.08,0-1.66-0.45-1.61-1.27
			c0.06-0.96,0.69-1.23,1.56-1.23C48.57,78.9,52.09,78.89,55.65,78.89z"/>
		
			<linearGradient id="SVGID_00000114039217811955006530000013076800777415451021_" gradientUnits="userSpaceOnUse" x1="43.4972" y1="85.1564" x2="54.4482" y2="85.1564">
			<stop  offset="0" style="stop-color:#1E8037"/>
			<stop  offset="1" style="stop-color:#479C37"/>
		</linearGradient>
		<path style="fill:url(#SVGID_00000114039217811955006530000013076800777415451021_);" d="M54.45,83.89
			c-0.25,0.94-0.46,1.72-0.68,2.53c-3.05,0-6.02,0.01-8.99-0.01c-0.79-0.01-1.31-0.43-1.29-1.27c0.02-0.84,0.57-1.23,1.34-1.24
			C47.98,83.88,51.13,83.89,54.45,83.89z"/>
		
			<linearGradient id="SVGID_00000037662171931241238780000013963765157071489174_" gradientUnits="userSpaceOnUse" x1="74.1035" y1="85.2105" x2="79.8622" y2="85.2105">
			<stop  offset="0" style="stop-color:#1E8037"/>
			<stop  offset="1" style="stop-color:#479C37"/>
		</linearGradient>
		<path style="fill:url(#SVGID_00000037662171931241238780000013963765157071489174_);" d="M74.1,86.38
			c0.75-0.86,1.26-1.92,2.03-2.18c1-0.34,2.22-0.11,3.33,0.04c0.19,0.02,0.48,0.85,0.38,1.22c-0.09,0.36-0.6,0.86-0.95,0.88
			C77.37,86.44,75.85,86.38,74.1,86.38z"/>
		
			<linearGradient id="SVGID_00000051384381110350278890000009239317021142467247_" gradientUnits="userSpaceOnUse" x1="78.6443" y1="80.7293" x2="80.0605" y2="80.7293">
			<stop  offset="0" style="stop-color:#1E8037"/>
			<stop  offset="1" style="stop-color:#479C37"/>
		</linearGradient>
		<path style="fill:url(#SVGID_00000051384381110350278890000009239317021142467247_);" d="M78.64,81.21
			c0.37-0.42,0.74-0.83,1.11-1.25c0.1,0.09,0.2,0.17,0.31,0.26c-0.36,0.43-0.72,0.86-1.08,1.28C78.87,81.4,78.76,81.31,78.64,81.21z
			"/>
	</g>
</g>
</svg>
