<?xml version="1.0" encoding="utf-8"?>
<!-- Generator: Adobe Illustrator 28.0.0, SVG Export Plug-In . SVG Version: 6.00 Build 0)  -->
<svg version="1.1" id="Capa_1" xmlns="http://www.w3.org/2000/svg" xmlns:xlink="http://www.w3.org/1999/xlink" x="0px" y="0px"
	 viewBox="0 0 120 120" style="enable-background:new 0 0 120 120;" xml:space="preserve">
<style type="text/css">
	.st0{fill:url(#SVGID_1_);}
	.st1{fill:#FFFFFF;}
</style>
<g>
	<g>
		<linearGradient id="SVGID_1_" gradientUnits="userSpaceOnUse" x1="1.5747" y1="60" x2="118.4253" y2="60">
			<stop  offset="0" style="stop-color:#1E8037"/>
			<stop  offset="1" style="stop-color:#479C37"/>
		</linearGradient>
		<path class="st0" d="M60,1.58C27.73,1.58,1.57,27.73,1.57,60c0,32.27,26.15,58.43,58.42,58.43c32.27,0,58.43-26.16,58.43-58.43
			C118.43,27.73,92.27,1.58,60,1.58z"/>
	</g>
	<g>
		<path class="st1" d="M56.04,74.63c-0.19-0.15-0.36-0.26-0.5-0.39c-4.77-4.66-9.54-9.32-14.3-13.98c-0.44-0.43-0.49-0.81,0.02-1.25
			c1.85-1.59,3.7-3.18,5.52-4.8c0.47-0.42,0.79-0.43,1.22,0.07c2.5,2.87,5.03,5.71,7.55,8.57c0.7,0.79,0.77,0.81,1.48,0.03
			c4.95-5.41,9.9-10.83,14.86-16.24c1.27-1.39,1.28-1.38,2.56-0.02c1.36,1.45,2.72,2.91,4.11,4.33c0.42,0.43,0.39,0.68-0.02,1.09
			C71.21,59.4,63.89,66.8,56.57,74.18C56.42,74.34,56.24,74.46,56.04,74.63z"/>
		<path class="st1" d="M35.05,41.66c0.08,3.56-2.86,6.65-6.42,6.73c-3.66,0.09-6.72-2.83-6.82-6.48c-0.09-3.66,2.84-6.69,6.53-6.75
			C31.96,35.1,34.96,38.01,35.05,41.66z M31.52,41.76c-0.01-1.75-1.34-3.09-3.07-3.07c-1.81,0.02-3.11,1.33-3.09,3.12
			c0.02,1.72,1.38,3.07,3.1,3.06C30.16,44.85,31.52,43.48,31.52,41.76z"/>
		<path class="st1" d="M28.42,71.62c3.7,0.04,6.66,3.01,6.64,6.66c-0.02,3.65-3.08,6.63-6.73,6.57c-3.64-0.06-6.58-3.09-6.52-6.7
			C21.87,74.53,24.86,71.58,28.42,71.62z M28.4,81.32c1.78,0,3.11-1.31,3.12-3.09c0.01-1.75-1.36-3.11-3.12-3.1
			c-1.71,0.01-3.05,1.38-3.05,3.1C25.34,79.97,26.68,81.31,28.4,81.32z"/>
		<path class="st1" d="M91.6,71.61c3.54-0.02,6.55,2.97,6.59,6.56c0.04,3.61-2.93,6.63-6.56,6.67c-3.66,0.04-6.68-2.93-6.7-6.6
			C84.9,74.63,87.91,71.64,91.6,71.61z M91.57,81.32c1.73,0,3.08-1.35,3.08-3.07c0-1.74-1.34-3.1-3.05-3.11
			c-1.75-0.01-3.11,1.32-3.12,3.04C88.47,79.97,89.8,81.32,91.57,81.32z"/>
		<path class="st1" d="M53.39,96.42c0.01-3.63,2.98-6.58,6.63-6.57c3.67,0.01,6.59,2.98,6.58,6.7c-0.01,3.59-2.99,6.54-6.59,6.54
			C56.34,103.09,53.39,100.11,53.39,96.42z M63.06,96.43c-0.01-1.75-1.33-3.07-3.08-3.07c-1.7,0-3.12,1.42-3.09,3.09
			c0.03,1.76,1.42,3.13,3.15,3.11C61.75,99.55,63.07,98.18,63.06,96.43z"/>
		<path class="st1" d="M91.65,35.16c3.67,0.07,6.59,3.06,6.52,6.68c-0.07,3.68-3.1,6.62-6.75,6.56c-3.6-0.07-6.56-3.13-6.49-6.74
			C85.01,38.01,88.03,35.09,91.65,35.16z M91.6,38.69c-1.75-0.03-3.09,1.27-3.12,3.02c-0.03,1.74,1.29,3.13,3,3.16
			c1.73,0.03,3.12-1.29,3.16-3.01C94.68,40.06,93.4,38.72,91.6,38.69z"/>
		<path class="st1" d="M59.93,30.14c-3.66-0.06-6.62-3.06-6.54-6.65c0.08-3.73,3.03-6.62,6.7-6.57c3.65,0.05,6.57,3.08,6.5,6.77
			C66.53,27.28,63.52,30.19,59.93,30.14z M63.08,23.52c-0.01-1.72-1.36-3.09-3.07-3.11c-1.68-0.02-3.15,1.47-3.12,3.16
			c0.04,1.71,1.42,3.07,3.13,3.06C61.74,26.62,63.09,25.25,63.08,23.52z"/>
		<path class="st1" d="M22.98,69.34c-1.55-6.24-1.55-12.41-0.01-18.65c1.06,0.38,2.04,0.7,2.99,1.12c0.15,0.07,0.21,0.57,0.15,0.84
			c-0.8,3.55-0.94,7.14-0.61,10.75c0.12,1.28,0.35,2.56,0.62,3.82c0.14,0.68,0.01,0.97-0.69,1.16
			C24.62,68.59,23.86,68.99,22.98,69.34z"/>
		<path class="st1" d="M97.01,50.65c1.55,6.26,1.54,12.44,0,18.66c-1.06-0.39-2.04-0.72-2.98-1.14c-0.15-0.07-0.19-0.56-0.15-0.84
			c0.24-2.1,0.61-4.18,0.73-6.28c0.16-2.76-0.06-5.52-0.72-8.22c-0.17-0.71-0.05-1.07,0.75-1.24C95.43,51.41,96.16,51,97.01,50.65z"
			/>
		<path class="st1" d="M33.39,32.64c0.66-0.6,1.25-1.19,1.88-1.73c4.03-3.42,8.57-5.91,13.62-7.48c0.58-0.18,0.81-0.06,0.83,0.58
			c0.03,0.67,0.12,1.34,0.28,1.99c0.14,0.57-0.04,0.8-0.57,0.97c-4.48,1.43-8.49,3.71-12.07,6.77c-0.39,0.34-0.8,0.89-1.21,0.9
			c-0.4,0.01-0.8-0.56-1.21-0.87C34.47,33.41,33.99,33.07,33.39,32.64z"/>
		<path class="st1" d="M49.58,96.74c-6.19-1.77-11.51-4.88-16.14-9.34c0.87-0.72,1.67-1.4,2.51-2.04c0.1-0.08,0.47,0.06,0.62,0.2
			c2.5,2.28,5.24,4.19,8.3,5.63c1.48,0.7,3.03,1.26,4.56,1.82c0.55,0.2,0.72,0.42,0.57,1.02C49.8,94.87,49.73,95.74,49.58,96.74z"/>
		<path class="st1" d="M86.57,87.4c-4.6,4.42-9.91,7.54-16.13,9.35c-0.06-0.31-0.12-0.53-0.16-0.76c-0.1-0.66-0.12-1.34-0.29-1.99
			c-0.15-0.58,0.03-0.8,0.55-0.97c3.86-1.21,7.38-3.08,10.58-5.55c0.79-0.61,1.54-1.26,2.28-1.92c0.35-0.32,0.57-0.32,0.93,0.01
			C85.03,86.2,85.78,86.76,86.57,87.4z"/>
		<path class="st1" d="M86.5,32.62c-0.83,0.69-1.59,1.36-2.4,1.96c-0.13,0.1-0.56-0.05-0.74-0.21c-2.24-2.03-4.67-3.8-7.39-5.13
			c-1.76-0.86-3.6-1.55-5.42-2.27c-0.51-0.2-0.7-0.41-0.57-0.98c0.16-0.67,0.24-1.37,0.28-2.06c0.04-0.57,0.28-0.67,0.77-0.52
			c3.7,1.16,7.2,2.75,10.36,5c1.58,1.12,3.04,2.4,4.54,3.62C86.15,32.19,86.31,32.41,86.5,32.62z"/>
	</g>
</g>
</svg>
