<?xml version="1.0" encoding="utf-8"?>
<!-- Generator: Adobe Illustrator 28.0.0, SVG Export Plug-In . SVG Version: 6.00 Build 0)  -->
<svg version="1.1" id="Capa_1" xmlns="http://www.w3.org/2000/svg" xmlns:xlink="http://www.w3.org/1999/xlink" x="0px" y="0px"
	 viewBox="0 0 120 120" style="enable-background:new 0 0 120 120;" xml:space="preserve">
<style type="text/css">
	.st0{fill:#FF4611;}
	.st1{fill:#FFFFFF;}
</style>
<g>
	<g>
		<path class="st0" d="M60,1.58C27.74,1.58,1.58,27.73,1.58,60c0,32.27,26.16,58.43,58.43,58.43S118.42,92.26,118.42,60
			C118.42,27.73,92.27,1.58,60,1.58z"/>
	</g>
	<path class="st1" d="M41.46,28.37c-1.43-0.43-2.76-0.84-4.09-1.24c-0.29-0.09-0.58-0.18-0.86-0.28c-0.7-0.26-1.09-0.95-0.97-1.68
		c0.13-0.74,0.72-1.28,1.46-1.28c0.28,0,0.57,0.06,0.84,0.14c2.57,0.77,5.13,1.56,7.7,2.32c1.39,0.41,1.79,1.07,1.38,2.48
		c-0.79,2.67-1.6,5.33-2.42,7.99c-0.27,0.89-1.12,1.39-1.89,1.15c-0.94-0.29-1.36-1.1-1.07-2.06c0.42-1.38,0.84-2.76,1.25-4.14
		c0.05-0.17,0.09-0.35,0.17-0.68c-0.92,0.62-1.74,1.14-2.52,1.71c-3.52,2.58-6.43,5.73-8.72,9.44c-1.12,1.82-2.07,3.72-2.81,5.73
		c-0.35,0.95-0.81,1.34-1.6,1.34c-1.09,0-1.84-1.04-1.46-2.06c1.04-2.81,2.38-5.47,4.07-7.95c2.75-4.05,6.18-7.41,10.26-10.11
		C40.56,28.92,40.97,28.68,41.46,28.37z M77.25,88.79c0.47-1.57,0.93-3.14,1.4-4.7c0.24-0.79-0.07-1.61-0.76-1.92
		c-0.81-0.36-1.61-0.15-2.03,0.63c-0.2,0.36-0.26,0.79-0.38,1.19c-0.76,2.47-1.52,4.93-2.28,7.4c-0.33,1.05,0.12,1.87,1.17,2.18
		c1.06,0.32,2.12,0.64,3.18,0.96c1.67,0.51,3.33,1.02,5.01,1.51c0.96,0.28,1.79-0.14,2.06-1.02c0.26-0.82-0.19-1.64-1.13-1.94
		c-1.12-0.36-2.24-0.68-3.37-1.02c-0.43-0.13-0.87-0.28-1.37-0.44c0.15-0.1,0.22-0.15,0.28-0.2c1.63-1.18,3.33-2.27,4.87-3.56
		c3.13-2.63,5.74-5.75,7.71-9.34c1.01-1.83,1.84-3.76,2.67-5.68c0.39-0.9-0.06-1.77-0.89-2.05c-0.9-0.3-1.68,0.14-2.06,1.09
		c-0.49,1.21-0.98,2.43-1.58,3.59c-2.12,4.12-4.95,7.7-8.57,10.61c-1.24,0.99-2.55,1.89-3.83,2.82
		C77.33,88.87,77.29,88.83,77.25,88.79z M28.69,79c1.7,2.74,3.71,5.22,6.05,7.44c3.62,3.43,7.78,5.98,12.44,7.74
		c0.96,0.36,1.79,0,2.14-0.9c0.31-0.81-0.12-1.6-1.01-2c-1.64-0.73-3.31-1.41-4.87-2.27c-3.66-2.03-6.83-4.69-9.45-7.95
		c-0.98-1.22-1.86-2.53-2.78-3.79c0.04-0.04,0.08-0.07,0.12-0.11c0.14,0.04,0.28,0.08,0.42,0.12c1.46,0.44,2.92,0.89,4.38,1.31
		c0.83,0.24,1.67-0.22,1.89-0.98c0.27-0.92-0.14-1.7-1.04-1.98c-2.71-0.83-5.42-1.66-8.13-2.47c-1.28-0.38-2.01,0.06-2.38,1.35
		c-0.77,2.62-1.56,5.24-2.35,7.85c-0.32,1.04,0.04,1.87,1,2.18c0.82,0.27,1.65-0.23,1.96-1.19c0.17-0.53,0.31-1.06,0.47-1.59
		c0.3-0.99,0.6-1.99,0.93-3.08C28.58,78.84,28.64,78.92,28.69,79z M91.48,40.99c-2.14-3.53-4.84-6.58-8.03-9.2
		c-3.16-2.59-6.66-4.56-10.47-5.99c-0.86-0.33-1.74,0.04-2.06,0.83c-0.34,0.83,0.03,1.7,0.91,2.05c2.1,0.82,4.13,1.77,6.05,2.95
		c4.04,2.49,7.4,5.71,10.09,9.61c0.35,0.5,0.65,1.03,1.03,1.63c-0.21-0.05-0.31-0.06-0.4-0.09c-1.51-0.45-3.02-0.9-4.53-1.34
		c-0.79-0.23-1.56,0.15-1.82,0.91c-0.29,0.86,0.09,1.77,0.9,2.02c2.8,0.86,5.61,1.71,8.42,2.54c1.06,0.31,1.8-0.14,2.12-1.19
		c0.54-1.8,1.09-3.59,1.63-5.39c0.29-0.95,0.59-1.89,0.85-2.84c0.27-0.98-0.19-1.77-1.14-2.03c-0.8-0.22-1.57,0.29-1.85,1.21
		c-0.46,1.52-0.93,3.04-1.42,4.65C91.62,41.17,91.53,41.09,91.48,40.99z M86.04,59.85c0.01,4.4,3.75,8.16,8.16,8.19
		c4.47,0.03,8.12-3.52,8.14-7.93c0.03-4.54-3.68-8.29-8.22-8.32C89.69,51.77,86.04,55.41,86.04,59.85z M94.06,64.76
		c-2.67-0.02-4.74-2.12-4.72-4.8c0.01-2.7,2.29-4.92,5.03-4.91c2.6,0.01,4.68,2.14,4.68,4.79C99.04,62.6,96.83,64.78,94.06,64.76z
		 M17.65,59.74c-0.03,4.53,3.69,8.29,8.23,8.31c4.43,0.02,8.06-3.58,8.08-8.01c0.02-4.45-3.75-8.22-8.22-8.24
		C21.32,51.78,17.68,55.35,17.65,59.74z M20.96,59.95c0.02-2.72,2.28-4.92,5.03-4.89c2.58,0.02,4.69,2.2,4.67,4.81
		c-0.02,2.72-2.26,4.92-4.97,4.89C22.96,64.73,20.94,62.67,20.96,59.95z M68.16,94.19c0.01-4.42-3.61-8.04-8.05-8.03
		c-4.5,0-8.06,3.58-8.06,8.1c0,4.38,3.62,7.99,8.03,7.99C64.54,102.25,68.15,98.65,68.16,94.19z M55.15,94.2
		c0-2.69,2.25-4.95,4.92-4.96c2.74,0,4.97,2.25,4.96,5.01c-0.01,2.7-2.33,4.96-4.96,4.88C57.37,99.13,55.15,96.9,55.15,94.2z
		 M52.05,25.84c0,4.42,3.62,8.01,8.06,8c4.42-0.01,8.04-3.6,8.05-7.98c0.01-4.48-3.61-8.12-8.07-8.11
		C55.64,17.75,52.05,21.36,52.05,25.84z M65.04,25.87c-0.03,2.7-2.3,4.91-5,4.88c-2.69-0.03-4.91-2.3-4.89-5
		c0.02-2.7,2.27-4.91,4.99-4.89C62.87,20.89,65.07,23.13,65.04,25.87z"/>
</g>
</svg>
