<?xml version="1.0" encoding="utf-8"?>
<!-- Generator: Adobe Illustrator 28.0.0, SVG Export Plug-In . SVG Version: 6.00 Build 0)  -->
<svg version="1.1" id="Capa_1" xmlns="http://www.w3.org/2000/svg" xmlns:xlink="http://www.w3.org/1999/xlink" x="0px" y="0px"
	 viewBox="0 0 120 120" style="enable-background:new 0 0 120 120;" xml:space="preserve">
<style type="text/css">
	.st0{fill:#FFFFFF;}
	.st1{fill:#FF4611;}
</style>
<g>
	<g>
		<path class="st0" d="M60,1.58C27.74,1.58,1.58,27.73,1.58,60c0,32.27,26.16,58.43,58.43,58.43S118.42,92.26,118.42,60
			C118.42,27.73,92.27,1.58,60,1.58z"/>
	</g>
	<g>
		<path class="st1" d="M29.88,42.86c-2.63-1.49-4.57-3.5-5.53-6.33c-0.73-2.15-0.73-4.34-0.05-6.5c1.36-4.33,5.43-7.21,10.05-7.14
			c4.45,0.06,8.41,3.07,9.68,7.38c0.74,2.51,0.54,4.96-0.56,7.34c-1.1,2.37-2.92,4.02-5.45,5.22c1.61,0.06,2.99,0.09,4.37,0.18
			c0.49,0.03,1.01,0.14,1.46,0.35c2.82,1.29,5.23,3.09,7.17,5.55c1.03,1.3,2.26,2.43,3.41,3.63c0.38,0.4,0.82,0.53,1.38,0.47
			c1.15-0.11,2.31-0.11,3.45-0.25c1.34-0.16,2.64-0.17,3.92,0.61c0.29-0.34,0.56-0.63,0.8-0.93c3.53-4.47,7.06-8.95,10.6-13.42
			c0.25-0.32,0.5-0.65,0.8-0.91c0.54-0.47,1.32-0.46,1.88-0.04c0.59,0.44,0.8,1.23,0.47,1.91c-0.13,0.27-0.33,0.51-0.52,0.75
			c-3.82,4.85-7.64,9.7-11.49,14.53c-0.44,0.55-0.57,1.06-0.5,1.75c0.36,3.34-0.68,4.9-3.99,5.6c-2.35,0.5-4.77,0.61-7.13,1.07
			c-2.27,0.44-4.19-0.12-6-1.45c-0.7-0.51-1.5-0.89-2.38-1.4c-0.02,0.48-0.05,0.8-0.05,1.13c0,11.06,0,22.12,0,33.18
			c0,1.67-0.44,3.22-1.28,4.65c-1.95,3.35-6.18,3.99-9.08,1.41c-0.25-0.22-0.49-0.47-0.78-0.75c-0.19,0.14-0.37,0.27-0.54,0.42
			c-2.44,2.21-5.27,2.43-8.16,1.25c-2.82-1.15-4.18-3.52-4.22-6.51c-0.07-6.14-0.02-12.28-0.02-18.42c0-0.4,0-0.8,0-1.24
			c-0.87,0.09-1.64,0.27-2.4,0.24c-2.37-0.1-4.01-1.31-4.89-3.51c-0.81-2.03-0.95-4.16-0.73-6.31c0.72-6.91,3.34-13.17,6.74-19.14
			c0.51-0.9,1.21-1.72,1.91-2.5c1.12-1.24,2.55-1.87,4.25-1.85C27.61,42.87,28.74,42.86,29.88,42.86z M21.61,72.39
			c0-0.48,0-0.89,0-1.29c0-4.48,0-8.95,0-13.43c0-0.31-0.01-0.61,0.01-0.92c0.07-0.82,0.65-1.41,1.42-1.47
			c0.8-0.06,1.52,0.51,1.65,1.34c0.06,0.37,0.03,0.74,0.03,1.12c0,12.31,0,24.62,0,36.93c0,0.37-0.02,0.75,0.01,1.12
			c0.12,1.8,1.32,3.26,3,3.67c3.07,0.75,4.91-0.68,4.91-3.84c0-7.8,0-15.6,0-23.4c0-0.34-0.02-0.68,0.02-1.02
			c0.11-0.84,0.81-1.46,1.59-1.44c0.79,0.02,1.43,0.65,1.5,1.5c0.03,0.34,0.01,0.68,0.01,1.02c0,7.6,0,15.19,0,22.79
			c0,1.48,0.58,2.71,1.62,3.71c1.4,1.35,3.33,1.06,4.31-0.61c0.57-0.98,0.86-2.06,0.86-3.2c0-10.51,0-21.03-0.01-31.54
			c0-1.76-0.02-3.53,0.02-5.29c0.03-1.41,1.15-2.04,2.4-1.41c0.18,0.09,0.35,0.2,0.53,0.31c1.84,1.08,3.68,2.16,5.54,3.22
			c0.31,0.18,0.7,0.39,1.02,0.35c2.86-0.33,5.72-0.64,8.56-1.11c1.58-0.26,1.76-0.69,1.5-2.27c-0.18-1.12-0.67-1.49-1.81-1.42
			c-1.69,0.11-3.39,0.17-5.07,0.32c-0.88,0.08-1.62-0.14-2.22-0.75c-1.52-1.54-3.12-3.02-4.52-4.66c-1.57-1.85-3.39-3.31-5.56-4.35
			c-0.32-0.16-0.71-0.25-1.07-0.26c-4.95-0.06-9.9-0.09-14.85-0.17c-1.35-0.02-2.37,0.49-3.11,1.57c-0.56,0.81-1.15,1.61-1.6,2.47
			c-0.8,1.53-1.56,3.09-2.23,4.68c-1.65,3.88-3.05,7.83-3.38,12.09c-0.12,1.54-0.05,3.05,0.46,4.52c0.52,1.48,1.48,2.01,3.01,1.66
			C20.64,72.83,21.09,72.59,21.61,72.39z M26.95,33.17c-0.01,3.99,3.16,7.21,7.12,7.24c3.99,0.03,7.28-3.25,7.27-7.22
			C41.33,29.25,38.07,26,34.13,26C30.17,26,26.96,29.2,26.95,33.17z"/>
		<path class="st1" d="M93.62,20.3c-0.48,0-0.91,0-1.34,0c-19.03,0-38.06,0-57.08,0c-0.37,0-0.75,0.02-1.12-0.02
			c-0.83-0.1-1.44-0.8-1.41-1.59c0.03-0.76,0.62-1.39,1.42-1.48c0.3-0.03,0.61-0.02,0.91-0.02c19.84,0,39.68,0,59.53,0
			c0.27,0,0.54-0.01,0.81,0.01c0.83,0.08,1.37,0.6,1.46,1.42c0.03,0.3,0.02,0.61,0.02,0.92c0,16.18,0,32.36,0,48.54
			c0,0.27,0.01,0.54-0.01,0.81c-0.06,0.95-0.57,1.5-1.51,1.61c-0.27,0.03-0.54,0.02-0.81,0.02c-15.13,0-30.25,0-45.38,0
			c-0.4,0-0.82-0.01-1.21-0.11c-0.7-0.18-1.15-0.83-1.13-1.51c0.02-0.69,0.49-1.31,1.2-1.45c0.46-0.09,0.94-0.09,1.42-0.09
			c14.25,0,28.49,0,42.74,0c0.47,0,0.94,0,1.49,0C93.62,51.66,93.62,36.08,93.62,20.3z"/>
	</g>
</g>
</svg>
